<svg aria-hidden="true" style="width:0;height:0;position:absolute;overflow:hidden" xmlns="http://www.w3.org/2000/svg"><defs><symbol id="icon-circle" viewBox="0 0 32 32"><path fill="#fff" style="fill:var(--color1,#fff)" d="M11.9 26.433 10.467 25l2.667-2.7c-3.022-.333-5.522-1.067-7.5-2.2s-2.967-2.567-2.967-4.3c0-1.756 1.294-3.25 3.883-4.483s5.739-1.85 9.45-1.85c3.733 0 6.889.617 9.467 1.85s3.867 2.728 3.867 4.483c0 1.311-.711 2.467-2.133 3.467s-3.311 1.778-5.667 2.333v-2.167c1.778-.444 3.189-1.022 4.233-1.733s1.567-1.344 1.567-1.9c0-.711-.928-1.611-2.783-2.7s-4.706-1.633-8.55-1.633c-3.822 0-6.667.544-8.533 1.633s-2.8 1.989-2.8 2.7c0 1 .639 1.861 1.917 2.583s3.494 1.383 6.65 1.983l-2.767-2.7 1.433-1.433 5.1 5.067-5.1 5.133z"/></symbol><symbol id="icon-arrow_forward" viewBox="0 0 32 32"><path d="m16 26.667-1.4-1.433 8.233-8.233h-17.5v-2h17.5L14.6 6.768 16 5.335l10.667 10.667L16 26.669z"/></symbol><symbol id="icon-build" viewBox="0 0 32 32"><path fill="#fff" style="fill:var(--color1,#fff)" d="m23.501 27.733-8.6-8.667c-.511.178-1.022.322-1.533.433s-1.033.167-1.567.167c-2.156 0-3.989-.75-5.5-2.25s-2.267-3.328-2.267-5.483a7.717 7.717 0 0 1 1.034-3.867l4.833 4.833 3.067-2.867-4.967-4.967c.578-.333 1.189-.594 1.833-.783s1.3-.283 1.967-.283c2.2 0 4.072.772 5.617 2.317s2.317 3.417 2.317 5.617c0 .533-.056 1.056-.167 1.567s-.256 1.022-.433 1.533l8.633 8.6c.244.244.367.539.367.883s-.122.639-.367.883l-2.533 2.333c-.244.244-.533.367-.867.367s-.622-.122-.867-.367z"/></symbol><symbol id="icon-build_key" viewBox="0 0 32 32"><path fill="#fff" style="fill:var(--color1,#fff)" d="m23.501 27.733-8.6-8.667c-.511.178-1.022.322-1.533.433s-1.033.167-1.567.167c-2.156 0-3.989-.75-5.5-2.25s-2.267-3.328-2.267-5.483a7.717 7.717 0 0 1 1.034-3.867l4.833 4.833 3.067-2.867-4.967-4.967c.578-.333 1.189-.594 1.833-.783s1.3-.283 1.967-.283c2.2 0 4.072.772 5.617 2.317s2.317 3.417 2.317 5.617c0 .533-.056 1.056-.167 1.567s-.256 1.022-.433 1.533l8.633 8.6c.244.244.367.539.367.883s-.122.639-.367.883l-2.533 2.333c-.244.244-.533.367-.867.367s-.622-.122-.867-.367z"/></symbol><symbol id="icon-calculate" viewBox="0 0 32 32"><path fill="#fff" style="fill:var(--color1,#fff)" d="M10.467 24.4h1.667v-2.933h2.933V19.8h-2.933v-2.933h-1.667V19.8H7.534v1.667h2.933V24.4zm7.166-1.167h6.7V21.6h-6.7v1.633zm0-3.566h6.7V18h-6.7v1.667zm1.234-5.434L20.9 12.2l2.033 2.033 1.2-1.2L22.1 11l2.033-2.033-1.2-1.2L20.9 9.8l-2.033-2.033-1.2 1.2L19.7 11l-2.033 2.033 1.2 1.2zm-10.834-2.4h6.533v-1.667H8.033v1.667zM6 28c-.533 0-1-.2-1.4-.6S4 26.533 4 26V6c0-.533.2-1 .6-1.4S5.467 4 6 4h20c.533 0 1 .2 1.4.6s.6.867.6 1.4v20c0 .533-.2 1-.6 1.4s-.867.6-1.4.6H6z"/></symbol><symbol id="icon-call" viewBox="0 0 32 32"><path fill="#fff" style="fill:var(--color1,#fff)" d="M25.165 26.499c-2.245 0-4.539-.605-6.883-1.817s-4.472-2.767-6.383-4.667c-1.911-1.9-3.472-4.017-4.683-6.35s-1.817-4.633-1.817-6.9c0-.4.139-.739.417-1.017s.617-.417 1.017-.417h2.933c.4 0 .733.117 1 .35s.433.539.5.917l.7 2.967c.067.356.061.672-.017.95s-.228.506-.45.683l-2.933 2.767c1.311 2.2 2.75 4.072 4.317 5.617s3.406 2.894 5.517 4.05l2.867-2.967c.222-.244.461-.417.717-.517s.539-.117.85-.05l2.5.567c.4.067.711.244.933.533s.333.633.333 1.033v2.833c0 .4-.139.739-.417 1.017s-.617.417-1.017.417z"/></symbol><symbol id="icon-category" viewBox="0 0 32 32"><path fill="#fff" style="fill:var(--color1,#fff)" d="m8.7 14.467 7.333-11.8 7.333 11.8H8.699zm14.833 14.866c-1.644 0-3.022-.556-4.133-1.667s-1.667-2.489-1.667-4.133c0-1.644.556-3.022 1.667-4.133s2.489-1.667 4.133-1.667c1.644 0 3.022.556 4.133 1.667s1.667 2.489 1.667 4.133c0 1.644-.556 3.022-1.667 4.133s-2.489 1.667-4.133 1.667zM4 28.5V18.367h10.133V28.5H4zm19.536-1.167c1.065 0 1.964-.368 2.697-1.103s1.1-1.635 1.1-2.7c0-1.065-.368-1.964-1.103-2.697s-1.635-1.1-2.7-1.1c-1.065 0-1.964.368-2.697 1.103s-1.1 1.635-1.1 2.7c0 1.065.368 1.964 1.103 2.697s1.635 1.1 2.7 1.1zM6 26.5h6.133v-6.133H6V26.5zm6.3-14.033h7.467l-3.733-6.033-3.733 6.033z"/></symbol><symbol id="icon-construction" viewBox="0 0 31 32"><path fill="#c1c1c1" style="fill:var(--color2,#c1c1c1)" d="m25.078 27.755-8.196-8.196 1.861-1.861 8.196 8.196-1.861 1.861zm-18.972 0-1.861-1.861 9.469-9.469-3.494-3.494-.751.751-1.437-1.437v2.776l-.784.784-3.984-3.984.784-.784h2.808L5.289 9.47l4.278-4.278c.37-.37.773-.62 1.208-.751s.914-.196 1.437-.196c.522 0 1.001.093 1.437.278s.838.463 1.208.833L11.363 8.85l1.567 1.567-.784.784 3.396 3.396 3.984-3.984c-.174-.283-.31-.61-.408-.98s-.147-.762-.147-1.175c0-1.154.419-2.15 1.257-2.988s1.834-1.257 2.988-1.257c.327 0 .604.033.833.098s.419.152.571.261l-2.776 2.776 2.449 2.449 2.776-2.776c.109.174.201.386.278.637s.114.539.114.865c0 1.154-.419 2.15-1.257 2.988s-1.834 1.257-2.988 1.257c-.392 0-.729-.027-1.012-.082s-.544-.136-.784-.245L6.106 27.755z"/></symbol><symbol id="icon-deployed" viewBox="0 0 32 32"><path d="M15 26.867v-10.3l-9-5.2v10.3l9 5.2zm2 0 9-5.2V11.334l-9 5.228v10.305zm-1-12L24.867 9.7 16 4.567 7.1 9.7l8.9 5.167zM5 23.4a1.997 1.997 0 0 1-1-1.733V10.334c0-.356.088-.687.263-.993s.421-.553.737-.74l10-5.767c.318-.178.654-.267 1.005-.267s.683.089.995.267l10 5.767a1.997 1.997 0 0 1 1 1.733v11.333c0 .356-.087.687-.263.993s-.421.553-.737.74l-10 5.767c-.318.178-.654.267-1.005.267s-.683-.089-.995-.267L5 23.4z"/></symbol><symbol id="icon-Ellipse" viewBox="0 0 32 32"><path fill="#577e99" style="fill:var(--color3,#577e99);stroke:var(--color4,#0f428f)" stroke="#0f428f" stroke-width="5.333" d="M29.333 16c0 7.364-5.97 13.333-13.333 13.333S2.667 23.363 2.667 16C2.667 8.636 8.637 2.667 16 2.667S29.333 8.637 29.333 16z"/></symbol><symbol id="icon-arrow_right" viewBox="0 0 32 32"><path d="m20.299 16-5.767-5.767-1.4 1.433 4.333 4.333-4.333 4.333 1.4 1.433 5.767-5.767zm9.034 0c0 1.822-.35 3.544-1.05 5.167s-1.656 3.039-2.867 4.25-2.628 2.167-4.25 2.867a12.9 12.9 0 0 1-5.167 1.05c-1.844 0-3.578-.35-5.2-1.05s-3.033-1.656-4.233-2.867-2.15-2.628-2.85-4.25A12.9 12.9 0 0 1 2.666 16c0-1.845.35-3.578 1.05-5.2s1.65-3.033 2.85-4.233 2.611-2.15 4.233-2.85c1.622-.7 3.356-1.05 5.2-1.05 1.822 0 3.544.35 5.167 1.05s3.039 1.65 4.25 2.85c1.211 1.2 2.167 2.611 2.867 4.233s1.05 3.355 1.05 5.2z"/></symbol><symbol id="icon-arrow_left" viewBox="0 0 32 32"><path opacity=".5" d="m11.701 16 5.767 5.767 1.4-1.433-4.333-4.333 4.333-4.333-1.4-1.433-5.767 5.767zm-9.034 0c0-1.822.35-3.544 1.05-5.167s1.656-3.039 2.867-4.25 2.628-2.167 4.25-2.867a12.9 12.9 0 0 1 5.167-1.05c1.844 0 3.578.35 5.2 1.05s3.033 1.656 4.233 2.867 2.15 2.628 2.85 4.25A12.9 12.9 0 0 1 29.334 16c0 1.845-.35 3.578-1.05 5.2s-1.65 3.033-2.85 4.233-2.611 2.15-4.233 2.85c-1.622.7-3.356 1.05-5.2 1.05-1.822 0-3.544-.35-5.167-1.05s-3.039-1.65-4.25-2.85-2.167-2.611-2.867-4.233c-.7-1.622-1.05-3.355-1.05-5.2z"/></symbol><symbol id="icon-whatsapp" viewBox="0 0 32 32"><path fill="#fff" style="fill:var(--color1,#fff)" d="m2.673 29.335 1.803-6.624a13.268 13.268 0 0 1-1.808-6.709c0-7.364 5.969-13.333 13.333-13.333s13.333 5.969 13.333 13.333-5.969 13.333-13.333 13.333a13.273 13.273 0 0 1-6.707-1.807l-6.621 1.807zm8.516-19.59c-.172.011-.34.056-.495.133a1.703 1.703 0 0 0-.392.304c-.16.151-.251.281-.348.408a3.634 3.634 0 0 0-.753 2.237c.003.653.173 1.289.44 1.884.545 1.203 1.443 2.476 2.628 3.656.285.284.564.569.864.835a12.602 12.602 0 0 0 5.12 2.728l.759.116c.247.013.493-.005.741-.017.388-.02.767-.125 1.111-.308.221-.117.325-.176.511-.293 0 0 .057-.037.167-.12.18-.133.291-.228.44-.384.111-.115.207-.249.28-.403.104-.217.208-.632.251-.977.032-.264.023-.408.019-.497-.005-.143-.124-.291-.253-.353l-.776-.348s-1.16-.505-1.868-.828a.667.667 0 0 0-.236-.055.651.651 0 0 0-.504.169v-.003c-.007 0-.096.076-1.06 1.244a.463.463 0 0 1-.491.173 1.92 1.92 0 0 1-.255-.088c-.165-.069-.223-.096-.336-.145l-.007-.003a8.013 8.013 0 0 1-2.093-1.333c-.168-.147-.324-.307-.484-.461a8.363 8.363 0 0 1-1.36-1.691l-.079-.127a1.265 1.265 0 0 1-.136-.273c-.051-.196.081-.353.081-.353s.324-.355.475-.547a6.36 6.36 0 0 0 .351-.497c.157-.253.207-.513.124-.715-.373-.912-.76-1.82-1.157-2.721-.079-.179-.312-.307-.524-.332-.072-.008-.144-.016-.216-.021a4.374 4.374 0 0 0-.537.007z"/></symbol><symbol id="icon-facebook" viewBox="0 0 32 32"><path d="M15.99 2.668c-7.364 0-13.333 5.969-13.333 13.333 0 6.655 4.876 12.171 11.251 13.172v-9.319h-3.387v-3.853h3.387v-2.937c0-3.341 1.989-5.187 5.036-5.187 1.459 0 2.984.26 2.984.26v3.28h-1.68c-1.657 0-2.173 1.028-2.173 2.083v2.501h3.697l-.591 3.853h-3.107v9.319c6.373-1 11.249-6.519 11.249-13.172 0-7.364-5.969-13.333-13.333-13.333z"/></symbol><symbol id="icon-instagram" viewBox="0 0 32 32"><path d="M15.99 12.001a4.003 4.003 0 0 0-4 4 4.003 4.003 0 0 0 4 4 4 4 0 0 0 0-8zm0-2.666a6.67 6.67 0 0 1 4.714 11.381 6.67 6.67 0 0 1-9.428 0A6.668 6.668 0 0 1 15.99 9.335zm8.666-.334a1.663 1.663 0 0 1-1.666 1.667 1.67 1.67 0 0 1-1.179-2.845 1.667 1.667 0 0 1 2.845 1.178zM15.99 5.335c-3.299 0-3.837.009-5.372.077-1.045.049-1.747.189-2.397.443a3.85 3.85 0 0 0-1.44.937 3.86 3.86 0 0 0-.939 1.44c-.253.653-.393 1.353-.441 2.397-.069 1.472-.077 1.987-.077 5.372 0 3.299.009 3.837.077 5.372.049 1.044.189 1.747.441 2.396.227.58.493.997.936 1.44.449.448.867.716 1.44.937.659.255 1.36.396 2.4.444 1.472.069 1.987.077 5.372.077 3.299 0 3.837-.009 5.372-.077 1.043-.049 1.745-.189 2.396-.441a3.892 3.892 0 0 0 1.44-.936c.449-.449.717-.867.939-1.44.253-.657.395-1.36.443-2.4.069-1.472.077-1.987.077-5.372 0-3.299-.009-3.837-.077-5.372-.049-1.043-.189-1.747-.443-2.397a3.883 3.883 0 0 0-.937-1.44 3.847 3.847 0 0 0-1.44-.939c-.653-.253-1.355-.393-2.397-.441-1.472-.069-1.987-.077-5.372-.077zm0-2.667c3.623 0 4.075.013 5.496.08 1.42.067 2.387.289 3.237.62a6.51 6.51 0 0 1 2.363 1.537 6.538 6.538 0 0 1 1.537 2.363c.329.849.553 1.817.62 3.237.063 1.421.08 1.873.08 5.496s-.013 4.075-.08 5.496c-.067 1.42-.291 2.387-.62 3.237a6.53 6.53 0 0 1-1.537 2.363 6.55 6.55 0 0 1-2.363 1.537c-.849.329-1.817.553-3.237.62-1.421.063-1.873.08-5.496.08s-4.075-.013-5.496-.08c-1.42-.067-2.387-.291-3.237-.62a6.53 6.53 0 0 1-2.363-1.537 6.538 6.538 0 0 1-1.537-2.363c-.331-.849-.553-1.817-.62-3.237-.063-1.421-.08-1.873-.08-5.496s.013-4.075.08-5.496c.067-1.421.289-2.387.62-3.237a6.516 6.516 0 0 1 1.537-2.363 6.53 6.53 0 0 1 2.363-1.537c.851-.331 1.816-.553 3.237-.62 1.421-.063 1.873-.08 5.496-.08z"/></symbol><symbol id="icon-linkedin" viewBox="0 0 32 32"><path d="M9.255 6.668a2.667 2.667 0 1 1-5.334-.003 2.667 2.667 0 0 1 5.334.003zm.08 4.64H4.002v16.693h5.333V11.308zm8.427 0h-5.307v16.693h5.253v-8.76c0-4.88 6.36-5.333 6.36 0v8.76h5.267V17.428c0-8.227-9.413-7.92-11.627-3.88l.053-2.24z"/></symbol><symbol id="icon-telegramm" viewBox="0 0 32 32"><path fill="#fff" style="fill:var(--color1,#fff)" d="M16.001 29.334c-7.364 0-13.333-5.97-13.333-13.333S8.638 2.668 16.001 2.668c7.364 0 13.333 5.97 13.333 13.333s-5.97 13.333-13.333 13.333zm-4.146-11.773.017-.011 1.159 3.828c.15.414.355.488.605.454s.382-.169.545-.326l1.585-1.53 3.401 2.517c.62.342 1.067.166 1.221-.576l2.21-10.428c.244-.971-.184-1.36-.937-1.052L8.684 15.45c-.885.356-.881.851-.161 1.072l3.331 1.04z"/></symbol><symbol id="icon-groups" viewBox="0 0 32 32"><path fill="#fff" style="fill:var(--color1,#fff)" d="M0 24v-1.767c0-.857.461-1.555 1.383-2.093s2.132-.807 3.629-.807c.27 0 .53.006.78.017s.497.035.741.072A5.635 5.635 0 0 0 6 21.833V24H0zm8 0v-2.167c0-.711.194-1.361.583-1.95s.939-1.106 1.65-1.55c.711-.444 1.561-.778 2.55-1S14.844 17 16 17c1.178 0 2.261.111 3.25.333s1.839.556 2.55 1c.711.444 1.256.961 1.633 1.55s.567 1.239.567 1.95V24H8zm18 0v-2.167c0-.441-.039-.857-.117-1.248s-.206-.778-.383-1.161c.244-.038.491-.063.739-.074s.502-.017.761-.017c1.5 0 2.708.264 3.625.792S32 21.356 32 22.233V24h-6zm-16-2h12v-.2c0-.822-.561-1.494-1.683-2.017S17.756 19 16 19c-1.756 0-3.194.261-4.317.783S10 20.989 10 21.833V22zm-5.014-3.667c-.635 0-1.18-.228-1.636-.685S2.667 16.642 2.667 16c0-.644.228-1.194.685-1.65s1.006-.683 1.648-.683c.644 0 1.194.228 1.65.683s.683 1.01.683 1.664c0 .635-.228 1.18-.683 1.636s-1.01.683-1.664.683zm22 0c-.635 0-1.18-.228-1.636-.685s-.683-1.006-.683-1.648c0-.644.228-1.194.685-1.65s1.006-.683 1.648-.683c.644 0 1.194.228 1.65.683s.683 1.01.683 1.664c0 .635-.228 1.18-.683 1.636s-1.01.683-1.664.683zM16 16c-1.111 0-2.056-.389-2.833-1.167S12 13.111 12 12c0-1.133.389-2.083 1.167-2.85S14.889 8 16 8c1.133 0 2.083.383 2.85 1.15S20 10.867 20 12c0 1.111-.383 2.056-1.15 2.833S17.133 16 16 16zm.012-2c.57 0 1.044-.193 1.422-.578s.567-.863.567-1.433c0-.57-.191-1.044-.572-1.422S16.576 10 16.012 10c-.563 0-1.04.191-1.428.572s-.583.853-.583 1.417c0 .563.193 1.04.578 1.428s.863.583 1.433.583z"/></symbol><symbol id="icon-volvo" viewBox="0 0 32 32"><path d="M0 0h32v32H0V0z"/></symbol><symbol id="icon-truck" viewBox="0 0 32 32"><path d="M9.603 23.975c-.819 0-1.515-.287-2.09-.86s-.862-1.27-.862-2.09h-1.65V9.5c0-.4.15-.75.45-1.05S6.101 8 6.501 8h14.475v4.175h2.625l3.4 4.525v4.325h-1.775c0 .82-.287 1.516-.86 2.09s-1.269.86-2.087.86c-.819 0-1.515-.287-2.09-.86s-.863-1.27-.863-2.09h-6.775c0 .817-.287 1.512-.86 2.087s-1.269.863-2.088.863zm-.003-1.5c.4 0 .742-.142 1.025-.425s.425-.625.425-1.025c0-.4-.142-.742-.425-1.025S10 19.575 9.6 19.575c-.4 0-.742.142-1.025.425s-.425.625-.425 1.025c0 .4.142.742.425 1.025s.625.425 1.025.425zm-3.1-2.95h.55c.283-.45.642-.808 1.076-1.075s.917-.4 1.45-.4c.533 0 1.02.137 1.461.413s.804.629 1.088 1.063h7.35V9.501H6.5v10.025zm15.775 2.95c.4 0 .742-.142 1.025-.425s.425-.625.425-1.025c0-.4-.142-.742-.425-1.025s-.625-.425-1.025-.425c-.4 0-.742.142-1.025.425s-.425.625-.425 1.025c0 .4.142.742.425 1.025s.625.425 1.025.425zm-1.3-5.1h4.65l-2.775-3.7h-1.875v3.7z"/><path fill="none" stroke="#c1c1c1" style="stroke:var(--color1,#c1c1c1)" stroke-width="0" d="M16 1c8.284 0 15 6.716 15 15s-6.716 15-15 15C7.716 31 1 24.284 1 16S7.716 1 16 1z"/></symbol><symbol id="icon-info" viewBox="0 0 32 32"><path fill="#fff" style="fill:var(--color1,#fff)" d="M15.1 22.667h2v-8h-2v8zm.899-10.467c.311 0 .573-.102.784-.307s.317-.458.317-.76c0-.321-.105-.59-.316-.807S16.312 10 16.001 10c-.312 0-.573.109-.784.326s-.317.486-.317.807c0 .302.105.556.316.76s.472.307.783.307zm.01 17.133c-1.839 0-3.566-.35-5.183-1.05s-3.031-1.656-4.242-2.867c-1.211-1.211-2.167-2.626-2.867-4.245s-1.05-3.348-1.05-5.189c0-1.84.35-3.57 1.05-5.189s1.656-3.028 2.867-4.228c1.211-1.2 2.626-2.15 4.245-2.85s3.348-1.05 5.189-1.05c1.84 0 3.57.35 5.189 1.05s3.028 1.65 4.228 2.85c1.2 1.2 2.15 2.611 2.85 4.233s1.05 3.353 1.05 5.191c0 1.839-.35 3.566-1.05 5.183s-1.65 3.029-2.85 4.236-2.611 2.163-4.233 2.867c-1.622.704-3.353 1.056-5.191 1.056zm.008-2c3.144 0 5.817-1.106 8.017-3.317s3.3-4.889 3.3-8.033c0-3.144-1.098-5.817-3.294-8.017s-4.876-3.3-8.04-3.3c-3.133 0-5.806 1.098-8.017 3.294S4.666 12.836 4.666 16c0 3.133 1.106 5.806 3.317 8.017s4.889 3.317 8.033 3.317z"/></symbol><symbol id="icon-car_wash" viewBox="0 0 31 32"><path fill="#c1c1c1" style="fill:var(--color2,#c1c1c1)" d="M15.771 6.563c-.522 0-.974-.19-1.355-.571s-.571-.833-.571-1.355c0-.414.147-.844.441-1.29s.789-1.018 1.486-1.714c.697.697 1.192 1.268 1.486 1.714s.441.876.441 1.29c0 .522-.191.974-.571 1.355s-.833.571-1.355.571zm-6.889 0c-.522 0-.974-.19-1.355-.571s-.571-.833-.571-1.355c0-.414.147-.844.441-1.29s.789-1.018 1.486-1.714c.697.697 1.192 1.268 1.486 1.714s.441.876.441 1.29c0 .522-.191.974-.571 1.355s-.833.571-1.355.571zm13.714 0c-.522 0-.974-.19-1.355-.571s-.571-.833-.571-1.355c0-.414.147-.844.441-1.29s.789-1.018 1.486-1.714c.697.697 1.192 1.268 1.486 1.714s.441.876.441 1.29c0 .522-.191.974-.571 1.355s-.833.571-1.355.571zM6.531 27.625v1.763a.952.952 0 0 1-.98.98h-.653a.952.952 0 0 1-.98-.98v-10.58l2.776-8.359c.065-.305.234-.544.506-.718s.571-.261.898-.261h15.151c.327 0 .626.087.898.261s.441.414.506.718l2.776 8.359v10.58a.952.952 0 0 1-.98.98h-.686a.952.952 0 0 1-.98-.98v-1.763H6.53zm.098-10.776h18.09l-1.796-5.42H8.425l-1.796 5.42zm2.71 7.184c.501 0 .92-.169 1.257-.506s.506-.756.506-1.257c0-.501-.169-.931-.506-1.29s-.756-.539-1.257-.539c-.501 0-.931.18-1.29.539s-.539.789-.539 1.29.18.92.539 1.257.789.506 1.29.506zm12.702 0c.501 0 .931-.169 1.29-.506s.539-.756.539-1.257c0-.501-.18-.931-.539-1.29s-.789-.539-1.29-.539-.92.18-1.257.539-.506.789-.506 1.29.169.92.506 1.257.756.506 1.257.506z"/></symbol><symbol id="icon-drink" viewBox="0 0 32 32"><path d="M9.2 29.334c-.733 0-1.317-.211-1.75-.633s-.683-.967-.75-1.633L4 2.668h24l-2.7 24.4c-.067.667-.317 1.211-.75 1.633s-1.006.633-1.717.633H9.2zM6.9 10.667h18.2l.667-6H6.234l.667 6zm9.1 14.9c1 0 1.85-.339 2.55-1.017s1.05-1.517 1.05-2.517c0-1.044-.317-2.155-.95-3.333s-1.517-2.3-2.65-3.367c-1.133 1.067-2.017 2.189-2.65 3.367s-.95 2.289-.95 3.333c0 1 .35 1.839 1.05 2.517S15 25.567 16 25.567z"/></symbol><symbol id="icon-fire" viewBox="0 0 32 32"><path fill="#e25a5a" style="fill:var(--color5,#e25a5a)" d="M5.333 18.667c0-2.333.556-4.411 1.667-6.233s2.333-3.356 3.667-4.6C12 6.59 13.223 5.64 14.334 4.984l1.667-.983v4.4c0 .822.278 1.472.833 1.95s1.178.717 1.867.717c.378 0 .739-.078 1.083-.233s.661-.411.95-.767l.6-.733c1.6.933 2.889 2.228 3.867 3.883s1.467 3.472 1.467 5.45c0 2.111-.544 4.017-1.633 5.717s-2.522 2.983-4.3 3.85c.511-.578.906-1.222 1.183-1.933s.417-1.456.417-2.233c0-.844-.156-1.639-.467-2.383s-.767-1.417-1.367-2.017l-4.5-4.4-4.467 4.4c-.622.6-1.089 1.272-1.4 2.017s-.467 1.539-.467 2.383c0 .778.139 1.522.417 2.233s.672 1.356 1.183 1.933c-1.778-.867-3.211-2.15-4.3-3.85s-1.633-3.606-1.633-5.717zm10.667-.6 3.067 3c.4.4.711.856.933 1.367s.333 1.056.333 1.633c0 1.178-.422 2.183-1.267 3.017s-1.867 1.25-3.067 1.25c-1.2 0-2.222-.417-3.067-1.25s-1.267-1.839-1.267-3.017c0-.578.106-1.122.317-1.633s.528-.967.95-1.367l3.067-3z"/></symbol><symbol id="icon-shipping_truck" viewBox="0 0 32 32"><path d="M7.471 26.633c-1.091 0-2.021-.382-2.787-1.147s-1.15-1.693-1.15-2.786h-2.2V7.333c0-.533.2-1 .6-1.4s.867-.6 1.4-.6h19.3V10.9h3.5l4.533 6.033V22.7H28.3c0 1.093-.382 2.021-1.146 2.786s-1.692 1.147-2.783 1.147-2.021-.382-2.787-1.147-1.15-1.693-1.15-2.786h-9.033c0 1.089-.382 2.017-1.146 2.783s-1.692 1.15-2.783 1.15zm-.004-2c.533 0 .989-.189 1.367-.567s.567-.833.567-1.367c0-.533-.189-.989-.567-1.367s-.833-.567-1.367-.567c-.533 0-.989.189-1.367.567s-.567.833-.567 1.367c0 .533.189.989.567 1.367s.833.567 1.367.567zM3.333 20.7h.733c.378-.6.856-1.078 1.435-1.433s1.223-.533 1.933-.533 1.36.183 1.949.55 1.072.839 1.45 1.417h9.8V7.334h-17.3v13.367zm21.034 3.933c.533 0 .989-.189 1.367-.567s.567-.833.567-1.367c0-.533-.189-.989-.567-1.367s-.833-.567-1.367-.567c-.533 0-.989.189-1.367.567s-.567.833-.567 1.367c0 .533.189.989.567 1.367s.833.567 1.367.567zm-1.734-6.8h6.2l-3.7-4.933h-2.5v4.933z"/></symbol><symbol id="icon-mail" viewBox="0 0 32 32"><path fill="#fff" style="fill:var(--color1,#fff)" d="M5.833 25.335c-.511 0-.944-.178-1.3-.533S4 24.013 4 23.502v-15c0-.511.178-.944.533-1.3s.789-.533 1.3-.533h20.333c.511 0 .945.178 1.3.533s.533.789.533 1.3v15c0 .511-.178.944-.533 1.3s-.789.533-1.3.533H5.833zM16 15.801l10.967-7.333-.4-.767L16 14.634 5.433 7.701l-.4.767L16 15.801z"/></symbol><symbol id="icon-menu" viewBox="0 0 32 32"><path fill="#fff" style="fill:var(--color1,#fff)" d="M4.333 23.513V22h23.333v1.513H4.333zm0-6.757v-1.513h23.333v1.513H4.333zm0-6.756V8.487h23.333V10H4.333z"/></symbol><symbol id="icon-nutrition" viewBox="0 0 32 32"><path fill="#fff" d="M16.001 28c-2.6 0-4.806-.905-6.617-2.717s-2.717-4.017-2.717-6.617c0-2.222.683-4.183 2.05-5.883S11.845 10 14 9.533c-.578-.111-1.133-.272-1.667-.483s-1.011-.528-1.433-.95c-.622-.644-1.039-1.389-1.25-2.233s-.317-1.711-.317-2.6v-.6c1.911-.044 3.556.583 4.933 1.883s2.056 2.894 2.033 4.783c.311-.956.75-1.844 1.317-2.667s1.206-1.589 1.917-2.3c.2-.2.433-.3.7-.3s.5.1.7.3.3.433.3.7c0 .267-.1.5-.3.7-.556.556-1.056 1.156-1.5 1.8s-.822 1.322-1.133 2.033c2.089.533 3.783 1.639 5.083 3.317s1.95 3.594 1.95 5.75c0 2.6-.906 4.806-2.717 6.617S18.599 28 15.999 28z"/></symbol><symbol id="icon-nutrition2" viewBox="0 0 32 32"><path d="M16.001 28c-2.6 0-4.806-.906-6.617-2.717s-2.717-4.017-2.717-6.617c0-2.222.683-4.183 2.05-5.883S11.845 10 14 9.533c-.578-.111-1.133-.272-1.667-.483s-1.011-.528-1.433-.95c-.622-.644-1.039-1.389-1.25-2.233s-.317-1.711-.317-2.6v-.6c1.911-.044 3.556.583 4.933 1.883s2.056 2.894 2.033 4.783c.311-.956.75-1.844 1.317-2.667s1.206-1.589 1.917-2.3c.2-.2.433-.3.7-.3s.5.1.7.3.3.433.3.7c0 .267-.1.5-.3.7-.556.556-1.056 1.156-1.5 1.8s-.822 1.322-1.133 2.033c2.089.533 3.783 1.639 5.083 3.317s1.95 3.594 1.95 5.75c0 2.6-.906 4.806-2.717 6.617S18.599 28 15.999 28z"/></symbol><symbol id="icon-package" viewBox="0 0 32 32"><path fill="#fff" style="fill:var(--color1,#fff)" d="M12.667 13.733 16 12.066l3.333 1.667V6h-6.667v7.733zm-3.334 8.934V20H16v2.667H9.333zM6 28c-.533 0-1-.2-1.4-.6S4 26.533 4 26V6c0-.533.2-1 .6-1.4S5.467 4 6 4h20c.533 0 1 .2 1.4.6s.6.867.6 1.4v20c0 .533-.2 1-.6 1.4s-.867.6-1.4.6H6zm0-2h20V6h-4.667v10.967L16 14.3l-5.333 2.667V6H6v20z"/></symbol><symbol id="icon-Polygon" viewBox="0 0 29 32"><path fill="#c1c1c1" style="fill:var(--color2,#c1c1c1);stroke:var(--color4,#0f428f)" stroke="#0f428f" stroke-width="4.923" d="m10.769 28.258 12.923-7.461c3.692-2.132 3.692-7.461 0-9.593L10.769 3.743c-3.692-2.132-8.308.533-8.308 4.796v14.922c0 4.264 4.615 6.928 8.308 4.797z"/></symbol><symbol id="icon-request_page" viewBox="0 0 32 32"><path fill="#fff" style="fill:var(--color1,#fff)" d="M15 24h2v-1.333h2c.283 0 .521-.096.713-.287s.287-.429.287-.713v-4.333c0-.283-.096-.521-.287-.712s-.429-.288-.713-.288h-5v-2.333h6v-2h-3v-1.333h-2v1.333h-2c-.283 0-.521.096-.712.288s-.288.429-.288.712v4.333c0 .283.096.521.288.713s.429.287.712.287h5v2.333h-6v2h3V24zm-7.667 5.333c-.533 0-1-.2-1.4-.6s-.6-.867-.6-1.4V4.666c0-.533.2-1 .6-1.4s.867-.6 1.4-.6H18.7l7.967 7.967v16.7c0 .533-.2 1-.6 1.4s-.867.6-1.4.6H7.334zm0-2h17.333v-15.8l-6.867-6.867H7.332v22.667z"/></symbol><symbol id="icon-route" viewBox="0 0 32 32"><path fill="#fff" style="fill:var(--color1,#fff)" d="M11.833 28c-1.444 0-2.667-.506-3.667-1.518s-1.5-2.228-1.5-3.649V11.2c-.778-.289-1.417-.747-1.917-1.375s-.75-1.344-.75-2.147c0-1.03.361-1.9 1.083-2.611S6.671 4 7.682 4c1.011 0 1.872.357 2.583 1.071s1.067 1.581 1.067 2.602c0 .796-.25 1.51-.75 2.144S9.443 10.911 8.665 11.2v11.633c0 .871.306 1.616.917 2.236s1.367.93 2.267.93c.9 0 1.65-.31 2.25-.93s.9-1.366.9-2.236V9.166c0-1.444.5-2.667 1.5-3.667s2.222-1.5 3.667-1.5c1.444 0 2.667.5 3.667 1.5s1.5 2.222 1.5 3.667v11.633c.778.289 1.417.748 1.917 1.379s.75 1.349.75 2.155c0 1-.356 1.861-1.069 2.583s-1.579 1.083-2.597 1.083c-1 0-1.861-.361-2.583-1.083s-1.083-1.583-1.083-2.583c0-.807.25-1.53.75-2.172s1.139-1.095 1.917-1.362V9.166c0-.889-.306-1.639-.917-2.25s-1.361-.917-2.25-.917-1.639.306-2.25.917-.917 1.361-.917 2.25v13.667c0 1.421-.5 2.637-1.5 3.649S13.279 28 11.834 28zM7.683 9.333c.456 0 .844-.167 1.167-.5s.483-.728.483-1.183c0-.456-.16-.844-.479-1.167S8.139 6 7.666 6c-.444 0-.833.16-1.167.479s-.5.715-.5 1.188c0 .444.167.833.5 1.167s.728.5 1.183.5zM24.35 26c.456 0 .844-.167 1.167-.5s.483-.728.483-1.183c0-.456-.16-.844-.479-1.167s-.715-.483-1.188-.483c-.444 0-.833.16-1.167.479s-.5.715-.5 1.187c0 .444.167.833.5 1.167s.728.5 1.183.5z"/></symbol><symbol id="icon-science" viewBox="0 0 32 32"><path d="M5.733 28c-.928 0-1.588-.433-1.98-1.3s-.265-1.656.38-2.367L12.4 15V6h-1.733c-.283 0-.521-.096-.713-.289s-.287-.432-.287-.717.096-.522.287-.711.429-.283.713-.283h10.667c.283 0 .521.096.713.289s.287.432.287.717-.096.522-.287.711-.429.283-.713.283h-1.733v9l8.267 9.333c.644.711.771 1.5.38 2.367s-1.051 1.3-1.98 1.3H5.735z"/></symbol><symbol id="icon-location" viewBox="0 0 33 32"><path fill="#0f428f" style="fill:var(--color4,#0f428f)" d="M17.734 29.267v-2c1-.133 1.972-.394 2.917-.783s1.828-.906 2.65-1.55l1.367 1.467c-1.022.844-2.111 1.5-3.267 1.967s-2.378.767-3.667.9zm8.967-4.934-1.433-1.367c.6-.8 1.1-1.661 1.5-2.583s.678-1.917.833-2.983h2.033c-.178 1.333-.517 2.583-1.017 3.75s-1.139 2.228-1.917 3.183zm.9-9.733c-.156-1.067-.433-2.056-.833-2.967s-.9-1.778-1.5-2.6l1.433-1.367c.844 1.111 1.489 2.211 1.933 3.3s.778 2.3 1 3.633h-2.033zm-12.7 14.667c-3.378-.378-6.2-1.828-8.467-4.35s-3.4-5.494-3.4-8.917c0-3.422 1.133-6.394 3.4-8.917s5.089-3.972 8.467-4.35v2c-2.822.378-5.172 1.639-7.05 3.783s-2.817 4.639-2.817 7.483c0 2.844.939 5.339 2.817 7.483s4.228 3.406 7.05 3.783v2zm8.433-22.2c-.867-.6-1.772-1.094-2.717-1.483s-1.883-.672-2.817-.85v-2c1.2.178 2.389.5 3.567.967s2.278 1.1 3.3 1.9l-1.333 1.467zm-7 15.966c-1.889-1.6-3.289-3.083-4.2-4.45s-1.367-2.628-1.367-3.783c0-1.756.561-3.15 1.683-4.183s2.417-1.55 3.883-1.55 2.761.517 3.883 1.55c1.122 1.033 1.683 2.428 1.683 4.183 0 1.156-.456 2.417-1.367 3.783s-2.311 2.85-4.2 4.45zm0-6.966c.422 0 .778-.144 1.067-.433s.433-.644.433-1.067c0-.378-.144-.722-.433-1.033s-.644-.467-1.067-.467c-.422 0-.778.156-1.067.467s-.433.656-.433 1.033c0 .422.144.778.433 1.067s.644.433 1.067.433z"/></symbol><symbol id="icon-Star" viewBox="0 0 35 32"><path stroke-width="5.161" d="m29.082 22.664.003-.004.002-.004 2.347-4.084a5.163 5.163 0 0 0 0-5.144l-2.352-4.093-2.363-4.075a5.162 5.162 0 0 0-4.455-2.572l-4.72-.009-4.71.009A5.163 5.163 0 0 0 8.379 5.26L6.011 9.343l-2.347 4.084a5.163 5.163 0 0 0 0 5.144l2.352 4.093 2.363 4.075a5.162 5.162 0 0 0 4.455 2.572l4.72.009 4.71-.009a5.163 5.163 0 0 0 4.455-2.572l2.363-4.075z"/></symbol><symbol id="icon-saved" viewBox="0 0 33 32"><path fill="#c1c1c1" style="fill:var(--color2,#c1c1c1)" d="M14.893 18.267 21.96 11.2l-1.4-1.433-5.667 5.667-2.833-2.833-1.4 1.433 4.233 4.233zM1.659 28v-2h29.333v2H1.659zm3.334-4c-.533 0-1-.2-1.4-.6s-.6-.867-.6-1.4V6c0-.533.2-1 .6-1.4s.867-.6 1.4-.6H27.66c.533 0 1 .2 1.4.6s.6.867.6 1.4v16c0 .533-.2 1-.6 1.4s-.867.6-1.4.6H4.993z"/></symbol><symbol id="icon-task" viewBox="0 0 32 32"><path fill="#fff" style="fill:var(--color1,#fff)" d="m14.467 23.5 7.633-7.633-1.3-1.3-6.333 6.333-3.433-3.433-1.3 1.3 4.733 4.733zm-7.134 5.833c-.533 0-1-.2-1.4-.6s-.6-.867-.6-1.4V4.666c0-.533.2-1 .6-1.4s.867-.6 1.4-.6h12.033l7.3 7.3v17.367c0 .533-.2 1-.6 1.4s-.867.6-1.4.6H7.333zm11.034-18.466v-6.2H7.334v22.667h17.333V10.867h-6.3z"/></symbol><symbol id="icon-tire_repair" viewBox="0 0 31 32"><path fill="#c1c1c1" style="fill:var(--color2,#c1c1c1)" d="M25.143 10.449c-.37 0-.68-.125-.931-.376s-.375-.561-.375-.931c0-.174.038-.343.114-.506s.169-.299.278-.408c.261-.261.86-.555 1.796-.882l1.404-.49c-.174.501-.337.969-.49 1.404-.131.37-.278.729-.441 1.078s-.31.588-.441.718c-.109.109-.245.201-.408.278s-.332.114-.506.114zM4.571 27.755c-.539 0-1-.192-1.384-.575s-.575-.845-.575-1.384V6.204c0-.539.192-1 .575-1.384s.845-.575 1.384-.575h8.816c.539 0 1 .192 1.384.575s.575.845.575 1.384v11.788c.305-.109.599-.196.882-.261s.534-.098.753-.098c.997 0 1.845.349 2.543 1.048s1.047 1.546 1.047 2.544v2.776c0 .435.191.844.571 1.224s.795.571 1.241.571c.446 0 .854-.191 1.224-.571s.555-.789.555-1.224v-7.347h-1.306v-1.763c-1.175-.501-2.122-1.26-2.841-2.279s-1.078-2.172-1.078-3.46c0-1.725.61-3.192 1.829-4.4s2.683-1.812 4.392-1.812c1.709 0 3.167.605 4.375 1.815s1.812 2.674 1.812 4.391c0 1.283-.359 2.436-1.078 3.459s-1.665 1.785-2.841 2.286v1.763H26.12v7.347c0 .98-.375 1.85-1.127 2.612s-1.622 1.143-2.612 1.143c-.991 0-1.867-.381-2.629-1.143s-1.143-1.633-1.143-2.612v-2.776c0-.463-.156-.85-.469-1.163s-.701-.469-1.163-.469c-.435 0-.816.156-1.143.469s-.49.701-.49 1.163v4.571c0 .539-.192 1-.575 1.384s-.845.575-1.384.575H4.569zm20.568-14.367c1.178 0 2.181-.412 3.008-1.237s1.241-1.826 1.241-3.004-.412-2.181-1.237-3.008c-.825-.827-1.826-1.241-3.004-1.241s-2.181.412-3.008 1.237c-.827.825-1.241 1.826-1.241 3.004s.412 2.181 1.237 3.008c.825.827 1.826 1.241 3.004 1.241zM7.184 10.971V8.195L5.192 6.203h-.62v2.155l2.612 2.612zm3.591 0 2.612-2.612V6.204h-.62l-1.992 1.992v2.775zm-3.591 6.858v-2.776l-2.612-2.612v2.776l2.612 2.612zm3.591 0 2.612-2.612v-2.776l-2.612 2.612v2.776zm-3.591 6.53v-2.776l-2.612-2.612v2.776l2.612 2.612zm3.591 0 2.612-2.612v-2.776l-2.612 2.612v2.776z"/></symbol><symbol id="icon-water_drop" viewBox="0 0 32 32"><path fill="#fff" style="fill:var(--color1,#fff)" d="M16.031 24.938c.296-.009.521-.063.676-.164s.232-.252.232-.454-.079-.354-.238-.458c-.159-.103-.389-.155-.69-.155-.925.017-1.905-.282-2.94-.896s-1.686-1.666-1.953-3.155c-.036-.2-.117-.353-.242-.458s-.265-.158-.417-.158c-.193 0-.346.075-.458.226s-.15.326-.114.526c.333 1.833 1.135 3.151 2.405 3.954s2.516 1.201 3.738 1.192zM16 28.667c-2.856 0-5.237-.98-7.142-2.941S6 21.323 6 18.4c0-2.068.828-4.335 2.483-6.801S12.644 6.446 16 3.539c3.355 2.908 5.861 5.594 7.517 8.06S26 16.332 26 18.4c0 2.923-.953 5.365-2.858 7.326S18.856 28.667 16 28.667z"/></symbol><symbol id="icon-water_drop2" viewBox="0 0 32 32"><path d="M16.031 24.938c.296-.009.521-.063.676-.164s.232-.252.232-.454-.079-.354-.238-.458-.389-.155-.69-.155c-.925.017-1.905-.282-2.94-.896s-1.686-1.666-1.953-3.155c-.036-.2-.117-.353-.242-.458s-.265-.158-.417-.158c-.193 0-.346.075-.458.226s-.15.326-.114.526c.333 1.833 1.135 3.15 2.405 3.954s2.516 1.201 3.738 1.192zM16 28.666c-2.856 0-5.237-.98-7.142-2.941S6 21.322 6 18.399c0-2.068.828-4.335 2.483-6.801S12.644 6.445 16 3.538c3.356 2.908 5.861 5.594 7.517 8.06S26 16.331 26 18.399c0 2.923-.953 5.365-2.858 7.326S18.856 28.666 16 28.666z"/></symbol><symbol id="icon-water" viewBox="0 0 32 32"><path d="M2.668 23.634v-2c.844 0 1.528-.256 2.05-.767s1.283-.767 2.283-.767 1.778.3 2.333.9c.556.6 1.267.9 2.133.9s1.589-.3 2.167-.9c.578-.6 1.367-.9 2.367-.9s1.783.3 2.35.9c.567.6 1.283.9 2.15.9s1.583-.3 2.15-.9c.567-.6 1.35-.9 2.35-.9s1.761.256 2.283.767 1.206.767 2.05.767v2c-1.044 0-1.817-.256-2.317-.767S25.845 22.1 25 22.1s-1.556.3-2.133.9-1.367.9-2.367.9-1.789-.3-2.367-.9-1.289-.9-2.133-.9c-.844 0-1.561.3-2.15.9s-1.383.9-2.383.9-1.783-.3-2.35-.9-1.272-.9-2.117-.9c-.844 0-1.517.256-2.017.767s-1.272.767-2.317.767zm0-5.334v-2c.844 0 1.528-.256 2.05-.767s1.283-.767 2.283-.767 1.778.3 2.333.9 1.267.9 2.133.9c.867 0 1.589-.3 2.167-.9s1.367-.9 2.367-.9 1.783.3 2.35.9 1.283.9 2.15.9 1.583-.3 2.15-.9 1.35-.9 2.35-.9 1.761.256 2.283.767 1.206.767 2.05.767v2c-1.044 0-1.817-.256-2.317-.767s-1.172-.767-2.017-.767-1.556.3-2.133.9-1.367.9-2.367.9-1.789-.3-2.367-.9-1.289-.9-2.133-.9c-.844 0-1.561.3-2.15.9s-1.383.9-2.383.9-1.783-.3-2.35-.9-1.272-.9-2.117-.9c-.844 0-1.517.256-2.017.767s-1.272.767-2.317.767zm0-5.333v-2c.844 0 1.528-.256 2.05-.767s1.283-.767 2.283-.767 1.778.3 2.333.9 1.267.9 2.133.9c.867 0 1.589-.3 2.167-.9s1.367-.9 2.367-.9 1.783.3 2.35.9 1.283.9 2.15.9 1.583-.3 2.15-.9 1.35-.9 2.35-.9 1.761.256 2.283.767 1.206.767 2.05.767v2c-1.044 0-1.817-.256-2.317-.767s-1.172-.767-2.017-.767-1.556.3-2.133.9-1.367.9-2.367.9-1.789-.3-2.367-.9-1.289-.9-2.133-.9c-.844 0-1.561.3-2.15.9s-1.383.9-2.383.9-1.783-.3-2.35-.9-1.272-.9-2.117-.9c-.844 0-1.517.256-2.017.767s-1.272.767-2.317.767z"/></symbol><symbol id="icon-water_voc" viewBox="0 0 32 32"><path d="m19.899 29.534-.433-.967c-.178-.378-.3-.756-.367-1.133s-.1-.767-.1-1.167c0-.489.061-.967.183-1.433s.294-.922.517-1.367c.178-.378.328-.767.45-1.167s.183-.811.183-1.233c0-.356-.039-.706-.117-1.05s-.194-.672-.35-.983l-.3-.7 1.2-.533.4.933c.178.378.306.761.383 1.15s.117.783.117 1.183c0 .467-.056.922-.167 1.367s-.267.878-.467 1.3c-.178.4-.339.811-.483 1.233s-.217.856-.217 1.3c0 .333.039.661.117.983s.183.639.317.95l.367.8-1.233.533zm4 0-.433-.967c-.178-.378-.3-.756-.367-1.133s-.1-.767-.1-1.167c0-.489.061-.967.183-1.433s.294-.922.517-1.367c.178-.378.328-.767.45-1.167s.183-.811.183-1.233c0-.356-.039-.706-.117-1.05s-.194-.672-.35-.983l-.3-.7 1.2-.533.4.9c.156.378.278.767.367 1.167s.133.8.133 1.2c0 .467-.056.922-.167 1.367s-.267.878-.467 1.3c-.178.4-.339.811-.483 1.233s-.217.856-.217 1.3c0 .333.039.661.117.983s.183.639.317.95l.367.8-1.233.533zm4 0-.433-.967c-.178-.378-.3-.756-.367-1.133s-.1-.767-.1-1.167c0-.489.061-.967.183-1.433s.294-.922.517-1.367c.178-.378.328-.767.45-1.167s.183-.811.183-1.233c0-.356-.039-.706-.117-1.05s-.194-.672-.35-.983l-.3-.7 1.2-.533.433.9c.178.378.3.767.367 1.167s.1.8.1 1.2c0 .467-.056.922-.167 1.367s-.267.878-.467 1.3c-.178.4-.339.811-.483 1.233s-.217.856-.217 1.3c0 .333.039.661.117.983s.183.639.317.95l.367.8-1.233.533zM5.332 18.4c0-2.222.883-4.639 2.65-7.25s4.439-5.439 8.017-8.483c2.911 2.467 5.217 4.789 6.917 6.967s2.828 4.233 3.383 6.167h-7.3c-.556 0-1.028.194-1.417.583s-.583.861-.583 1.417v11.5a4.08 4.08 0 0 1-.5.033h-.5c-3.044 0-5.583-1.044-7.617-3.133s-3.05-4.689-3.05-7.8z"/></symbol><symbol id="icon-weight" viewBox="0 0 32 32"><path d="M7.234 26h17.533l-2.1-14.667H9.334L7.234 26zM16 9.333c.567 0 1.042-.192 1.425-.575S18 7.9 18 7.333c0-.567-.192-1.042-.575-1.425s-.858-.575-1.425-.575c-.567 0-1.042.192-1.425.575S14 6.766 14 7.333c0 .567.192 1.042.575 1.425s.858.575 1.425.575zm3.467 0h3.2c.514 0 .959.161 1.335.483s.598.739.665 1.25l2.067 14.667c.089.6-.062 1.128-.454 1.583s-.896.683-1.513.683H7.234c-.617 0-1.121-.228-1.513-.683s-.543-.983-.454-1.583l2.067-14.667c.067-.511.288-.928.665-1.25s.822-.483 1.335-.483h3.2c-.178-.311-.311-.629-.4-.952s-.133-.673-.133-1.048c0-1.111.389-2.056 1.167-2.833s1.722-1.167 2.833-1.167c1.111 0 2.056.389 2.833 1.167s1.167 1.722 1.167 2.833c0 .378-.044.728-.133 1.05s-.222.639-.4.95z"/></symbol><symbol id="icon-mode_of_travel" viewBox="0 0 32 32"><path fill="#fff" style="fill:var(--color1,#fff)" d="M16 29.333C12.556 26.355 9.917 23.577 8.083 21s-2.75-5.044-2.75-7.4c0-3.311 1.078-5.961 3.233-7.95s4.633-2.983 7.433-2.983c2.978 0 5.511 1.044 7.6 3.133s3.133 4.956 3.133 8.6l3.133-3.133 1.4 1.4-5.533 5.533-5.533-5.533 1.4-1.4 3.133 3.133c0-2.933-.811-5.289-2.433-7.067s-3.722-2.667-6.3-2.667c-2.422 0-4.472.839-6.15 2.517S7.332 11 7.332 13.6c0 1.822.733 3.811 2.2 5.967s3.622 4.533 6.467 7.133c.444-.4.922-.856 1.433-1.367L18.765 24c-.133-.267-.239-.533-.317-.8s-.117-.522-.117-.767c0-.844.294-1.556.883-2.133s1.294-.867 2.117-.867c.844 0 1.556.289 2.133.867s.867 1.289.867 2.133c0 .844-.289 1.556-.867 2.133s-1.289.867-2.133.867a3.065 3.065 0 0 1-1.033-.166c-.689.711-1.367 1.389-2.033 2.033s-1.422 1.322-2.267 2.033z"/></symbol><symbol id="icon-shower" viewBox="0 0 32 32"><path fill="#fff" style="fill:var(--color1,#fff)" d="M9.933 23.233c-.267 0-.5-.1-.7-.3s-.3-.433-.3-.7c0-.267.1-.5.3-.7s.433-.3.7-.3c.267 0 .5.1.7.3s.3.433.3.7c0 .267-.1.5-.3.7s-.433.3-.7.3zm6.067 0c-.267 0-.5-.1-.7-.3s-.3-.433-.3-.7c0-.267.1-.5.3-.7s.433-.3.7-.3c.267 0 .5.1.7.3s.3.433.3.7c0 .267-.1.5-.3.7s-.433.3-.7.3zm6.067 0c-.267 0-.5-.1-.7-.3s-.3-.433-.3-.7c0-.267.1-.5.3-.7s.433-.3.7-.3c.267 0 .5.1.7.3s.3.433.3.7c0 .267-.1.5-.3.7s-.433.3-.7.3zm-15.4-5v-2c0-2.378.806-4.456 2.417-6.233s3.583-2.789 5.917-3.033V4h2v2.967c2.333.244 4.306 1.256 5.917 3.033s2.417 3.856 2.417 6.233v2H6.668zm2-2h14.667c0-2.022-.714-3.75-2.143-5.183S18.035 8.9 16.008 8.9c-2.027 0-3.757.715-5.19 2.145s-2.15 3.159-2.15 5.188zM9.933 28c-.267 0-.5-.1-.7-.3s-.3-.433-.3-.7c0-.267.1-.5.3-.7s.433-.3.7-.3c.267 0 .5.1.7.3s.3.433.3.7c0 .267-.1.5-.3.7s-.433.3-.7.3zM16 28c-.267 0-.5-.1-.7-.3s-.3-.433-.3-.7c0-.267.1-.5.3-.7s.433-.3.7-.3c.267 0 .5.1.7.3s.3.433.3.7c0 .267-.1.5-.3.7s-.433.3-.7.3zm6.067 0c-.267 0-.5-.1-.7-.3s-.3-.433-.3-.7c0-.267.1-.5.3-.7s.433-.3.7-.3c.267 0 .5.1.7.3s.3.433.3.7c0 .267-.1.5-.3.7s-.433.3-.7.3z"/></symbol><symbol id="icon-close-mobile-menu" viewBox="0 0 32 32"><path d="M23.734 10.304 22.23 8.8l-5.963 5.962L10.305 8.8l-1.504 1.504 5.962 5.962-5.962 5.963 1.504 1.504 5.962-5.963 5.963 5.963 1.504-1.504-5.963-5.963 5.963-5.962z"/></symbol><symbol id="icon-done" viewBox="0 0 32 32"><path fill="#fff" style="fill:var(--color1,#fff)" d="m12.599 23.8-7.467-7.467L6.565 14.9l6.033 6.033 12.8-12.8 1.433 1.433-14.233 14.233z"/></symbol></defs></svg>