<svg aria-hidden="true" style="position: absolute; width: 0; height: 0; overflow: hidden;" version="1.1" xmlns="http://www.w3.org/2000/svg" xmlns:xlink="http://www.w3.org/1999/xlink">
<defs>
<symbol id="icon-circle" viewBox="0 0 32 32">
<path fill="#fff" style="fill: var(--color1, #fff)" d="M11.9 26.433l-1.433-1.433 2.667-2.7c-3.022-0.333-5.522-1.067-7.5-2.2s-2.967-2.567-2.967-4.3c0-1.756 1.294-3.25 3.883-4.483s5.739-1.85 9.45-1.85c3.733 0 6.889 0.617 9.467 1.85s3.867 2.728 3.867 4.483c0 1.311-0.711 2.467-2.133 3.467s-3.311 1.778-5.667 2.333v-2.167c1.778-0.444 3.189-1.022 4.233-1.733s1.567-1.344 1.567-1.9c0-0.711-0.928-1.611-2.783-2.7s-4.706-1.633-8.55-1.633c-3.822 0-6.667 0.544-8.533 1.633s-2.8 1.989-2.8 2.7c0 1 0.639 1.861 1.917 2.583s3.494 1.383 6.65 1.983l-2.767-2.7 1.433-1.433 5.1 5.067-5.1 5.133z"></path>
</symbol>
<symbol id="icon-arrow_forward" viewBox="0 0 32 32">
<path d="M16 26.667l-1.4-1.433 8.233-8.233h-17.5v-2h17.5l-8.233-8.233 1.4-1.433 10.667 10.667-10.667 10.667z"></path>
</symbol>
<symbol id="icon-build" viewBox="0 0 32 32">
<path fill="#fff" style="fill: var(--color1, #fff)" d="M23.501 27.733l-8.6-8.667c-0.511 0.178-1.022 0.322-1.533 0.433s-1.033 0.167-1.567 0.167c-2.156 0-3.989-0.75-5.5-2.25s-2.267-3.328-2.267-5.483c0-0.689 0.089-1.361 0.267-2.017s0.433-1.272 0.767-1.85l4.833 4.833 3.067-2.867-4.967-4.967c0.578-0.333 1.189-0.594 1.833-0.783s1.3-0.283 1.967-0.283c2.2 0 4.072 0.772 5.617 2.317s2.317 3.417 2.317 5.617c0 0.533-0.056 1.056-0.167 1.567s-0.256 1.022-0.433 1.533l8.633 8.6c0.244 0.244 0.367 0.539 0.367 0.883s-0.122 0.639-0.367 0.883l-2.533 2.333c-0.244 0.244-0.533 0.367-0.867 0.367s-0.622-0.122-0.867-0.367z"></path>
</symbol>
<symbol id="icon-build_key" viewBox="0 0 32 32">
<path fill="#fff" style="fill: var(--color1, #fff)" d="M23.501 27.733l-8.6-8.667c-0.511 0.178-1.022 0.322-1.533 0.433s-1.033 0.167-1.567 0.167c-2.156 0-3.989-0.75-5.5-2.25s-2.267-3.328-2.267-5.483c0-0.689 0.089-1.361 0.267-2.017s0.433-1.272 0.767-1.85l4.833 4.833 3.067-2.867-4.967-4.967c0.578-0.333 1.189-0.594 1.833-0.783s1.3-0.283 1.967-0.283c2.2 0 4.072 0.772 5.617 2.317s2.317 3.417 2.317 5.617c0 0.533-0.056 1.056-0.167 1.567s-0.256 1.022-0.433 1.533l8.633 8.6c0.244 0.244 0.367 0.539 0.367 0.883s-0.122 0.639-0.367 0.883l-2.533 2.333c-0.244 0.244-0.533 0.367-0.867 0.367s-0.622-0.122-0.867-0.367z"></path>
</symbol>
<symbol id="icon-calculate" viewBox="0 0 32 32">
<path fill="#fff" style="fill: var(--color1, #fff)" d="M10.467 24.4h1.667v-2.933h2.933v-1.667h-2.933v-2.933h-1.667v2.933h-2.933v1.667h2.933v2.933zM17.633 23.233h6.7v-1.633h-6.7v1.633zM17.633 19.667h6.7v-1.667h-6.7v1.667zM18.867 14.233l2.033-2.033 2.033 2.033 1.2-1.2-2.033-2.033 2.033-2.033-1.2-1.2-2.033 2.033-2.033-2.033-1.2 1.2 2.033 2.033-2.033 2.033 1.2 1.2zM8.033 11.833h6.533v-1.667h-6.533v1.667zM6 28c-0.533 0-1-0.2-1.4-0.6s-0.6-0.867-0.6-1.4v-20c0-0.533 0.2-1 0.6-1.4s0.867-0.6 1.4-0.6h20c0.533 0 1 0.2 1.4 0.6s0.6 0.867 0.6 1.4v20c0 0.533-0.2 1-0.6 1.4s-0.867 0.6-1.4 0.6h-20z"></path>
</symbol>
<symbol id="icon-call" viewBox="0 0 32 32">
<path fill="#fff" style="fill: var(--color1, #fff)" d="M25.165 26.499c-2.245 0-4.539-0.605-6.883-1.817s-4.472-2.767-6.383-4.667c-1.911-1.9-3.472-4.017-4.683-6.35s-1.817-4.633-1.817-6.9c0-0.4 0.139-0.739 0.417-1.017s0.617-0.417 1.017-0.417h2.933c0.4 0 0.733 0.117 1 0.35s0.433 0.539 0.5 0.917l0.7 2.967c0.067 0.356 0.061 0.672-0.017 0.95s-0.228 0.506-0.45 0.683l-2.933 2.767c1.311 2.2 2.75 4.072 4.317 5.617s3.406 2.894 5.517 4.050l2.867-2.967c0.222-0.244 0.461-0.417 0.717-0.517s0.539-0.117 0.85-0.050l2.5 0.567c0.4 0.067 0.711 0.244 0.933 0.533s0.333 0.633 0.333 1.033v2.833c0 0.4-0.139 0.739-0.417 1.017s-0.617 0.417-1.017 0.417z"></path>
</symbol>
<symbol id="icon-category" viewBox="0 0 32 32">
<path fill="#fff" style="fill: var(--color1, #fff)" d="M8.7 14.467l7.333-11.8 7.333 11.8h-14.667zM23.533 29.333c-1.644 0-3.022-0.556-4.133-1.667s-1.667-2.489-1.667-4.133c0-1.644 0.556-3.022 1.667-4.133s2.489-1.667 4.133-1.667c1.644 0 3.022 0.556 4.133 1.667s1.667 2.489 1.667 4.133c0 1.644-0.556 3.022-1.667 4.133s-2.489 1.667-4.133 1.667zM4 28.5v-10.133h10.133v10.133h-10.133zM23.536 27.333c1.065 0 1.964-0.368 2.697-1.103s1.1-1.635 1.1-2.7c0-1.065-0.368-1.964-1.103-2.697s-1.635-1.1-2.7-1.1c-1.065 0-1.964 0.368-2.697 1.103s-1.1 1.635-1.1 2.7c0 1.065 0.368 1.964 1.103 2.697s1.635 1.1 2.7 1.1zM6 26.5h6.133v-6.133h-6.133v6.133zM12.3 12.467h7.467l-3.733-6.033-3.733 6.033z"></path>
</symbol>
<symbol id="icon-construction" viewBox="0 0 31 32">
<path fill="#c1c1c1" style="fill: var(--color2, #c1c1c1)" d="M25.078 27.755l-8.196-8.196 1.861-1.861 8.196 8.196-1.861 1.861zM6.106 27.755l-1.861-1.861 9.469-9.469-3.494-3.494-0.751 0.751-1.437-1.437v2.776l-0.784 0.784-3.984-3.984 0.784-0.784h2.808l-1.567-1.567 4.278-4.278c0.37-0.37 0.773-0.62 1.208-0.751s0.914-0.196 1.437-0.196c0.522 0 1.001 0.093 1.437 0.278s0.838 0.463 1.208 0.833l-3.494 3.494 1.567 1.567-0.784 0.784 3.396 3.396 3.984-3.984c-0.174-0.283-0.31-0.61-0.408-0.98s-0.147-0.762-0.147-1.175c0-1.154 0.419-2.15 1.257-2.988s1.834-1.257 2.988-1.257c0.327 0 0.604 0.033 0.833 0.098s0.419 0.152 0.571 0.261l-2.776 2.776 2.449 2.449 2.776-2.776c0.109 0.174 0.201 0.386 0.278 0.637s0.114 0.539 0.114 0.865c0 1.154-0.419 2.15-1.257 2.988s-1.834 1.257-2.988 1.257c-0.392 0-0.729-0.027-1.012-0.082s-0.544-0.136-0.784-0.245l-15.314 15.314z"></path>
</symbol>
<symbol id="icon-deployed" viewBox="0 0 32 32">
<path d="M15 26.867v-10.3l-9-5.2v10.3l9 5.2zM17 26.867l9-5.2v-10.333l-9 5.228v10.305zM16 14.867l8.867-5.167-8.867-5.133-8.9 5.133 8.9 5.167zM5 23.4c-0.317-0.187-0.563-0.434-0.737-0.74s-0.263-0.637-0.263-0.993v-11.333c0-0.356 0.088-0.687 0.263-0.993s0.421-0.553 0.737-0.74l10-5.767c0.318-0.178 0.654-0.267 1.005-0.267s0.683 0.089 0.995 0.267l10 5.767c0.317 0.187 0.563 0.434 0.737 0.74s0.263 0.637 0.263 0.993v11.333c0 0.356-0.087 0.687-0.263 0.993s-0.421 0.553-0.737 0.74l-10 5.767c-0.318 0.178-0.654 0.267-1.005 0.267s-0.683-0.089-0.995-0.267l-10-5.767z"></path>
</symbol>
<symbol id="icon-Ellipse" viewBox="0 0 32 32">
<path fill="#577e99" style="fill: var(--color3, #577e99); stroke: var(--color4, #0f428f)" stroke="#0f428f" stroke-linejoin="miter" stroke-linecap="butt" stroke-miterlimit="4" stroke-width="5.3333" d="M29.333 16c0 7.364-5.97 13.333-13.333 13.333s-13.333-5.97-13.333-13.333c0-7.364 5.97-13.333 13.333-13.333s13.333 5.97 13.333 13.333z"></path>
</symbol>
<symbol id="icon-arrow_right" viewBox="0 0 32 32">
<path fill="#000" d="M20.299 16l-5.767-5.767-1.4 1.433 4.333 4.333-4.333 4.333 1.4 1.433 5.767-5.767zM29.333 16c0 1.822-0.35 3.544-1.050 5.167s-1.656 3.039-2.867 4.25-2.628 2.167-4.25 2.867c-1.622 0.7-3.344 1.050-5.167 1.050-1.844 0-3.578-0.35-5.2-1.050s-3.033-1.656-4.233-2.867-2.15-2.628-2.85-4.25c-0.7-1.622-1.050-3.344-1.050-5.167 0-1.845 0.35-3.578 1.050-5.2s1.65-3.033 2.85-4.233 2.611-2.15 4.233-2.85c1.622-0.7 3.356-1.050 5.2-1.050 1.822 0 3.544 0.35 5.167 1.050s3.039 1.65 4.25 2.85c1.211 1.2 2.167 2.611 2.867 4.233s1.050 3.355 1.050 5.2z"></path>
</symbol>
<symbol id="icon-arrow_left" viewBox="0 0 32 32">
<path fill="#000" opacity="0.5" d="M11.701 16l5.767 5.767 1.4-1.433-4.333-4.333 4.333-4.333-1.4-1.433-5.767 5.767zM2.667 16c0-1.822 0.35-3.544 1.050-5.167s1.656-3.039 2.867-4.25 2.628-2.167 4.25-2.867c1.622-0.7 3.344-1.050 5.167-1.050 1.844 0 3.578 0.35 5.2 1.050s3.033 1.656 4.233 2.867 2.15 2.628 2.85 4.25c0.7 1.622 1.050 3.344 1.050 5.167 0 1.845-0.35 3.578-1.050 5.2s-1.65 3.033-2.85 4.233-2.611 2.15-4.233 2.85c-1.622 0.7-3.356 1.050-5.2 1.050-1.822 0-3.544-0.35-5.167-1.050s-3.039-1.65-4.25-2.85-2.167-2.611-2.867-4.233c-0.7-1.622-1.050-3.355-1.050-5.2z"></path>
</symbol>
<symbol id="icon-whatsapp" viewBox="0 0 32 32">
<path fill="#fff" style="fill: var(--color1, #fff)" d="M2.673 29.335l1.803-6.624c-1.188-2.036-1.812-4.352-1.808-6.709 0-7.364 5.969-13.333 13.333-13.333s13.333 5.969 13.333 13.333c0 7.364-5.969 13.333-13.333 13.333-2.356 0.004-4.671-0.62-6.707-1.807l-6.621 1.807zM11.189 9.745c-0.172 0.011-0.34 0.056-0.495 0.133-0.145 0.082-0.277 0.184-0.392 0.304-0.16 0.151-0.251 0.281-0.348 0.408-0.493 0.641-0.758 1.429-0.753 2.237 0.003 0.653 0.173 1.289 0.44 1.884 0.545 1.203 1.443 2.476 2.628 3.656 0.285 0.284 0.564 0.569 0.864 0.835 1.471 1.295 3.224 2.229 5.12 2.728l0.759 0.116c0.247 0.013 0.493-0.005 0.741-0.017 0.388-0.020 0.767-0.125 1.111-0.308 0.221-0.117 0.325-0.176 0.511-0.293 0 0 0.057-0.037 0.167-0.12 0.18-0.133 0.291-0.228 0.44-0.384 0.111-0.115 0.207-0.249 0.28-0.403 0.104-0.217 0.208-0.632 0.251-0.977 0.032-0.264 0.023-0.408 0.019-0.497-0.005-0.143-0.124-0.291-0.253-0.353l-0.776-0.348c0 0-1.16-0.505-1.868-0.828-0.075-0.033-0.155-0.051-0.236-0.055-0.091-0.009-0.183 0.001-0.27 0.030s-0.167 0.077-0.234 0.139v-0.003c-0.007 0-0.096 0.076-1.060 1.244-0.055 0.074-0.132 0.131-0.219 0.161s-0.182 0.035-0.272 0.012c-0.087-0.023-0.172-0.053-0.255-0.088-0.165-0.069-0.223-0.096-0.336-0.145l-0.007-0.003c-0.763-0.333-1.469-0.783-2.093-1.333-0.168-0.147-0.324-0.307-0.484-0.461-0.525-0.502-0.982-1.071-1.36-1.691l-0.079-0.127c-0.056-0.085-0.102-0.177-0.136-0.273-0.051-0.196 0.081-0.353 0.081-0.353s0.324-0.355 0.475-0.547c0.125-0.16 0.242-0.326 0.351-0.497 0.157-0.253 0.207-0.513 0.124-0.715-0.373-0.912-0.76-1.82-1.157-2.721-0.079-0.179-0.312-0.307-0.524-0.332-0.072-0.008-0.144-0.016-0.216-0.021-0.179-0.009-0.358-0.006-0.537 0.007z"></path>
</symbol>
<symbol id="icon-facebook" viewBox="0 0 32 32">
<path d="M15.99 2.668c-7.364 0-13.333 5.969-13.333 13.333 0 6.655 4.876 12.171 11.251 13.172v-9.319h-3.387v-3.853h3.387v-2.937c0-3.341 1.989-5.187 5.036-5.187 1.459 0 2.984 0.26 2.984 0.26v3.28h-1.68c-1.657 0-2.173 1.028-2.173 2.083v2.501h3.697l-0.591 3.853h-3.107v9.319c6.373-1 11.249-6.519 11.249-13.172 0-7.364-5.969-13.333-13.333-13.333z"></path>
</symbol>
<symbol id="icon-instagram" viewBox="0 0 32 32">
<path d="M15.99 12.001c-1.061 0-2.078 0.421-2.828 1.172s-1.172 1.768-1.172 2.828c0 1.061 0.421 2.078 1.172 2.828s1.768 1.172 2.828 1.172c1.061 0 2.078-0.422 2.828-1.172s1.172-1.768 1.172-2.828c0-1.061-0.421-2.078-1.172-2.828s-1.768-1.172-2.828-1.172zM15.99 9.335c1.768 0 3.464 0.702 4.714 1.953s1.953 2.946 1.953 4.714c0 1.768-0.702 3.464-1.953 4.714s-2.946 1.953-4.714 1.953-3.464-0.702-4.714-1.953c-1.25-1.25-1.953-2.946-1.953-4.714s0.702-3.464 1.953-4.714c1.25-1.25 2.946-1.953 4.714-1.953v0zM24.656 9.001c0 0.442-0.176 0.866-0.488 1.179s-0.736 0.488-1.178 0.488-0.866-0.176-1.179-0.488c-0.312-0.313-0.488-0.736-0.488-1.179s0.176-0.866 0.488-1.178c0.313-0.313 0.737-0.488 1.179-0.488s0.866 0.176 1.178 0.488c0.313 0.313 0.488 0.736 0.488 1.178v0zM15.99 5.335c-3.299 0-3.837 0.009-5.372 0.077-1.045 0.049-1.747 0.189-2.397 0.443-0.579 0.224-0.996 0.492-1.44 0.937-0.417 0.403-0.738 0.895-0.939 1.44-0.253 0.653-0.393 1.353-0.441 2.397-0.069 1.472-0.077 1.987-0.077 5.372 0 3.299 0.009 3.837 0.077 5.372 0.049 1.044 0.189 1.747 0.441 2.396 0.227 0.58 0.493 0.997 0.936 1.44 0.449 0.448 0.867 0.716 1.44 0.937 0.659 0.255 1.36 0.396 2.4 0.444 1.472 0.069 1.987 0.077 5.372 0.077 3.299 0 3.837-0.009 5.372-0.077 1.043-0.049 1.745-0.189 2.396-0.441 0.577-0.225 0.997-0.493 1.44-0.936 0.449-0.449 0.717-0.867 0.939-1.44 0.253-0.657 0.395-1.36 0.443-2.4 0.069-1.472 0.077-1.987 0.077-5.372 0-3.299-0.009-3.837-0.077-5.372-0.049-1.043-0.189-1.747-0.443-2.397-0.201-0.544-0.521-1.036-0.937-1.44-0.403-0.418-0.895-0.738-1.44-0.939-0.653-0.253-1.355-0.393-2.397-0.441-1.472-0.069-1.987-0.077-5.372-0.077zM15.99 2.668c3.623 0 4.075 0.013 5.496 0.080 1.42 0.067 2.387 0.289 3.237 0.62 0.88 0.339 1.621 0.797 2.363 1.537 0.678 0.667 1.203 1.473 1.537 2.363 0.329 0.849 0.553 1.817 0.62 3.237 0.063 1.421 0.080 1.873 0.080 5.496s-0.013 4.075-0.080 5.496c-0.067 1.42-0.291 2.387-0.62 3.237-0.334 0.89-0.859 1.697-1.537 2.363-0.667 0.678-1.473 1.202-2.363 1.537-0.849 0.329-1.817 0.553-3.237 0.62-1.421 0.063-1.873 0.080-5.496 0.080s-4.075-0.013-5.496-0.080c-1.42-0.067-2.387-0.291-3.237-0.62-0.89-0.334-1.697-0.859-2.363-1.537-0.678-0.667-1.203-1.473-1.537-2.363-0.331-0.849-0.553-1.817-0.62-3.237-0.063-1.421-0.080-1.873-0.080-5.496s0.013-4.075 0.080-5.496c0.067-1.421 0.289-2.387 0.62-3.237 0.334-0.89 0.858-1.697 1.537-2.363 0.666-0.678 1.473-1.203 2.363-1.537 0.851-0.331 1.816-0.553 3.237-0.62 1.421-0.063 1.873-0.080 5.496-0.080z"></path>
</symbol>
<symbol id="icon-linkedin" viewBox="0 0 32 32">
<path d="M9.255 6.668c-0 0.707-0.282 1.385-0.782 1.885s-1.179 0.78-1.886 0.78c-0.707-0-1.385-0.282-1.885-0.782s-0.78-1.179-0.78-1.886c0-0.707 0.282-1.385 0.782-1.885s1.179-0.78 1.886-0.78c0.707 0 1.385 0.282 1.885 0.782s0.78 1.179 0.78 1.886v0zM9.335 11.308h-5.333v16.693h5.333v-16.693zM17.762 11.308h-5.307v16.693h5.253v-8.76c0-4.88 6.36-5.333 6.36 0v8.76h5.267v-10.573c0-8.227-9.413-7.92-11.627-3.88l0.053-2.24z"></path>
</symbol>
<symbol id="icon-telegramm" viewBox="0 0 32 32">
<path fill="#fff" style="fill: var(--color1, #fff)" d="M16.001 29.334c-7.364 0-13.333-5.97-13.333-13.333s5.97-13.333 13.333-13.333c7.364 0 13.333 5.97 13.333 13.333s-5.97 13.333-13.333 13.333zM11.855 17.561l0.017-0.011c0.773 2.552 1.159 3.828 1.159 3.828 0.15 0.414 0.355 0.488 0.605 0.454s0.382-0.169 0.545-0.326c0 0 0.528-0.51 1.585-1.53l3.401 2.517c0.62 0.342 1.067 0.166 1.221-0.576l2.21-10.428c0.244-0.971-0.184-1.36-0.937-1.052l-12.977 5.013c-0.885 0.356-0.881 0.851-0.161 1.072l3.331 1.040z"></path>
</symbol>
<symbol id="icon-groups" viewBox="0 0 32 32">
<path fill="#fff" style="fill: var(--color1, #fff)" d="M0 24v-1.767c0-0.857 0.461-1.555 1.383-2.093s2.132-0.807 3.629-0.807c0.27 0 0.53 0.006 0.78 0.017s0.497 0.035 0.741 0.072c-0.178 0.386-0.311 0.776-0.4 1.172s-0.133 0.809-0.133 1.239v2.167h-6zM8 24v-2.167c0-0.711 0.194-1.361 0.583-1.95s0.939-1.106 1.65-1.55c0.711-0.444 1.561-0.778 2.55-1s2.061-0.333 3.217-0.333c1.178 0 2.261 0.111 3.25 0.333s1.839 0.556 2.55 1c0.711 0.444 1.256 0.961 1.633 1.55s0.567 1.239 0.567 1.95v2.167h-16zM26 24v-2.167c0-0.441-0.039-0.857-0.117-1.248s-0.206-0.778-0.383-1.161c0.244-0.038 0.491-0.063 0.739-0.074s0.502-0.017 0.761-0.017c1.5 0 2.708 0.264 3.625 0.792s1.375 1.231 1.375 2.108v1.767h-6zM10 22h12v-0.2c0-0.822-0.561-1.494-1.683-2.017s-2.561-0.783-4.317-0.783c-1.756 0-3.194 0.261-4.317 0.783s-1.683 1.206-1.683 2.050v0.167zM4.986 18.333c-0.635 0-1.18-0.228-1.636-0.685s-0.683-1.006-0.683-1.648c0-0.644 0.228-1.194 0.685-1.65s1.006-0.683 1.648-0.683c0.644 0 1.194 0.228 1.65 0.683s0.683 1.010 0.683 1.664c0 0.635-0.228 1.18-0.683 1.636s-1.010 0.683-1.664 0.683zM26.986 18.333c-0.635 0-1.18-0.228-1.636-0.685s-0.683-1.006-0.683-1.648c0-0.644 0.228-1.194 0.685-1.65s1.006-0.683 1.648-0.683c0.644 0 1.194 0.228 1.65 0.683s0.683 1.010 0.683 1.664c0 0.635-0.228 1.18-0.683 1.636s-1.010 0.683-1.664 0.683zM16 16c-1.111 0-2.056-0.389-2.833-1.167s-1.167-1.722-1.167-2.833c0-1.133 0.389-2.083 1.167-2.85s1.722-1.15 2.833-1.15c1.133 0 2.083 0.383 2.85 1.15s1.15 1.717 1.15 2.85c0 1.111-0.383 2.056-1.15 2.833s-1.717 1.167-2.85 1.167zM16.012 14c0.57 0 1.044-0.193 1.422-0.578s0.567-0.863 0.567-1.433c0-0.57-0.191-1.044-0.572-1.422s-0.853-0.567-1.417-0.567c-0.563 0-1.040 0.191-1.428 0.572s-0.583 0.853-0.583 1.417c0 0.563 0.193 1.040 0.578 1.428s0.863 0.583 1.433 0.583z"></path>
</symbol>
<symbol id="icon-volvo" viewBox="0 0 32 32">
<path d="M0 0h32v32h-32v-32z"></path>
</symbol>
<symbol id="icon-truck" viewBox="0 0 32 32">
<path d="M9.603 23.975c-0.819 0-1.515-0.287-2.090-0.86s-0.862-1.27-0.862-2.090h-1.65v-11.525c0-0.4 0.15-0.75 0.45-1.050s0.65-0.45 1.050-0.45h14.475v4.175h2.625l3.4 4.525v4.325h-1.775c0 0.82-0.287 1.516-0.86 2.090s-1.269 0.86-2.087 0.86c-0.819 0-1.515-0.287-2.090-0.86s-0.863-1.27-0.863-2.090h-6.775c0 0.817-0.287 1.512-0.86 2.087s-1.269 0.863-2.088 0.863zM9.6 22.475c0.4 0 0.742-0.142 1.025-0.425s0.425-0.625 0.425-1.025c0-0.4-0.142-0.742-0.425-1.025s-0.625-0.425-1.025-0.425c-0.4 0-0.742 0.142-1.025 0.425s-0.425 0.625-0.425 1.025c0 0.4 0.142 0.742 0.425 1.025s0.625 0.425 1.025 0.425zM6.5 19.525h0.55c0.283-0.45 0.642-0.808 1.076-1.075s0.917-0.4 1.45-0.4c0.533 0 1.020 0.137 1.461 0.413s0.804 0.629 1.088 1.063h7.35v-10.025h-12.975v10.025zM22.275 22.475c0.4 0 0.742-0.142 1.025-0.425s0.425-0.625 0.425-1.025c0-0.4-0.142-0.742-0.425-1.025s-0.625-0.425-1.025-0.425c-0.4 0-0.742 0.142-1.025 0.425s-0.425 0.625-0.425 1.025c0 0.4 0.142 0.742 0.425 1.025s0.625 0.425 1.025 0.425zM20.975 17.375h4.65l-2.775-3.7h-1.875v3.7z"></path>
<path fill="none" stroke="#c1c1c1" style="stroke: var(--color1, #c1c1c1)" stroke-linejoin="miter" stroke-linecap="butt" stroke-miterlimit="4" stroke-width="0" d="M16 1c8.284 0 15 6.716 15 15s-6.716 15-15 15c-8.284 0-15-6.716-15-15s6.716-15 15-15z"></path>
</symbol>
<symbol id="icon-info" viewBox="0 0 32 32">
<path fill="#fff" style="fill: var(--color1, #fff)" d="M15.1 22.667h2v-8h-2v8zM15.999 12.2c0.311 0 0.573-0.102 0.784-0.307s0.317-0.458 0.317-0.76c0-0.321-0.105-0.59-0.316-0.807s-0.472-0.326-0.783-0.326c-0.312 0-0.573 0.109-0.784 0.326s-0.317 0.486-0.317 0.807c0 0.302 0.105 0.556 0.316 0.76s0.472 0.307 0.783 0.307zM16.009 29.333c-1.839 0-3.566-0.35-5.183-1.050s-3.031-1.656-4.242-2.867c-1.211-1.211-2.167-2.626-2.867-4.245s-1.050-3.348-1.050-5.189c0-1.84 0.35-3.57 1.050-5.189s1.656-3.028 2.867-4.228c1.211-1.2 2.626-2.15 4.245-2.85s3.348-1.050 5.189-1.050c1.84 0 3.57 0.35 5.189 1.050s3.028 1.65 4.228 2.85c1.2 1.2 2.15 2.611 2.85 4.233s1.050 3.353 1.050 5.191c0 1.839-0.35 3.566-1.050 5.183s-1.65 3.029-2.85 4.236-2.611 2.163-4.233 2.867c-1.622 0.704-3.353 1.056-5.191 1.056zM16.017 27.333c3.144 0 5.817-1.106 8.017-3.317s3.3-4.889 3.3-8.033c0-3.144-1.098-5.817-3.294-8.017s-4.876-3.3-8.040-3.3c-3.133 0-5.806 1.098-8.017 3.294s-3.317 4.876-3.317 8.040c0 3.133 1.106 5.806 3.317 8.017s4.889 3.317 8.033 3.317z"></path>
</symbol>
<symbol id="icon-car_wash" viewBox="0 0 31 32">
<path fill="#c1c1c1" style="fill: var(--color2, #c1c1c1)" d="M15.771 6.563c-0.522 0-0.974-0.19-1.355-0.571s-0.571-0.833-0.571-1.355c0-0.414 0.147-0.844 0.441-1.29s0.789-1.018 1.486-1.714c0.697 0.697 1.192 1.268 1.486 1.714s0.441 0.876 0.441 1.29c0 0.522-0.191 0.974-0.571 1.355s-0.833 0.571-1.355 0.571zM8.882 6.563c-0.522 0-0.974-0.19-1.355-0.571s-0.571-0.833-0.571-1.355c0-0.414 0.147-0.844 0.441-1.29s0.789-1.018 1.486-1.714c0.697 0.697 1.192 1.268 1.486 1.714s0.441 0.876 0.441 1.29c0 0.522-0.191 0.974-0.571 1.355s-0.833 0.571-1.355 0.571zM22.596 6.563c-0.522 0-0.974-0.19-1.355-0.571s-0.571-0.833-0.571-1.355c0-0.414 0.147-0.844 0.441-1.29s0.789-1.018 1.486-1.714c0.697 0.697 1.192 1.268 1.486 1.714s0.441 0.876 0.441 1.29c0 0.522-0.191 0.974-0.571 1.355s-0.833 0.571-1.355 0.571zM6.531 27.625v1.763c0 0.283-0.093 0.517-0.278 0.702s-0.419 0.278-0.702 0.278h-0.653c-0.283 0-0.517-0.093-0.702-0.278s-0.278-0.419-0.278-0.702v-10.58l2.776-8.359c0.065-0.305 0.234-0.544 0.506-0.718s0.571-0.261 0.898-0.261h15.151c0.327 0 0.626 0.087 0.898 0.261s0.441 0.414 0.506 0.718l2.776 8.359v10.58c0 0.283-0.093 0.517-0.278 0.702s-0.419 0.278-0.702 0.278h-0.686c-0.283 0-0.517-0.093-0.702-0.278s-0.278-0.419-0.278-0.702v-1.763h-18.253zM6.629 16.849h18.090l-1.796-5.42h-14.498l-1.796 5.42zM9.339 24.033c0.501 0 0.92-0.169 1.257-0.506s0.506-0.756 0.506-1.257c0-0.501-0.169-0.931-0.506-1.29s-0.756-0.539-1.257-0.539c-0.501 0-0.931 0.18-1.29 0.539s-0.539 0.789-0.539 1.29c0 0.501 0.18 0.92 0.539 1.257s0.789 0.506 1.29 0.506zM22.041 24.033c0.501 0 0.931-0.169 1.29-0.506s0.539-0.756 0.539-1.257c0-0.501-0.18-0.931-0.539-1.29s-0.789-0.539-1.29-0.539c-0.501 0-0.92 0.18-1.257 0.539s-0.506 0.789-0.506 1.29c0 0.501 0.169 0.92 0.506 1.257s0.756 0.506 1.257 0.506z"></path>
</symbol>
<symbol id="icon-drink" viewBox="0 0 32 32">
<path d="M9.2 29.334c-0.733 0-1.317-0.211-1.75-0.633s-0.683-0.967-0.75-1.633l-2.7-24.4h24l-2.7 24.4c-0.067 0.667-0.317 1.211-0.75 1.633s-1.006 0.633-1.717 0.633h-13.633zM6.9 10.667h18.2l0.667-6h-19.533l0.667 6zM16 25.567c1 0 1.85-0.339 2.55-1.017s1.050-1.517 1.050-2.517c0-1.044-0.317-2.155-0.95-3.333s-1.517-2.3-2.65-3.367c-1.133 1.067-2.017 2.189-2.65 3.367s-0.95 2.289-0.95 3.333c0 1 0.35 1.839 1.050 2.517s1.55 1.017 2.55 1.017z"></path>
</symbol>
<symbol id="icon-fire" viewBox="0 0 32 32">
<path fill="#e25a5a" style="fill: var(--color5, #e25a5a)" d="M5.333 18.667c0-2.333 0.556-4.411 1.667-6.233s2.333-3.356 3.667-4.6c1.333-1.244 2.556-2.194 3.667-2.85l1.667-0.983v4.4c0 0.822 0.278 1.472 0.833 1.95s1.178 0.717 1.867 0.717c0.378 0 0.739-0.078 1.083-0.233s0.661-0.411 0.95-0.767l0.6-0.733c1.6 0.933 2.889 2.228 3.867 3.883s1.467 3.472 1.467 5.45c0 2.111-0.544 4.017-1.633 5.717s-2.522 2.983-4.3 3.85c0.511-0.578 0.906-1.222 1.183-1.933s0.417-1.456 0.417-2.233c0-0.844-0.156-1.639-0.467-2.383s-0.767-1.417-1.367-2.017l-4.5-4.4-4.467 4.4c-0.622 0.6-1.089 1.272-1.4 2.017s-0.467 1.539-0.467 2.383c0 0.778 0.139 1.522 0.417 2.233s0.672 1.356 1.183 1.933c-1.778-0.867-3.211-2.15-4.3-3.85s-1.633-3.606-1.633-5.717zM16 18.067l3.067 3c0.4 0.4 0.711 0.856 0.933 1.367s0.333 1.056 0.333 1.633c0 1.178-0.422 2.183-1.267 3.017s-1.867 1.25-3.067 1.25c-1.2 0-2.222-0.417-3.067-1.25s-1.267-1.839-1.267-3.017c0-0.578 0.106-1.122 0.317-1.633s0.528-0.967 0.95-1.367l3.067-3z"></path>
</symbol>
<symbol id="icon-shipping_truck" viewBox="0 0 32 32">
<path d="M7.471 26.633c-1.091 0-2.021-0.382-2.787-1.147s-1.15-1.693-1.15-2.786h-2.2v-15.367c0-0.533 0.2-1 0.6-1.4s0.867-0.6 1.4-0.6h19.3v5.567h3.5l4.533 6.033v5.767h-2.367c0 1.093-0.382 2.021-1.146 2.786s-1.692 1.147-2.783 1.147c-1.091 0-2.021-0.382-2.787-1.147s-1.15-1.693-1.15-2.786h-9.033c0 1.089-0.382 2.017-1.146 2.783s-1.692 1.15-2.783 1.15zM7.467 24.633c0.533 0 0.989-0.189 1.367-0.567s0.567-0.833 0.567-1.367c0-0.533-0.189-0.989-0.567-1.367s-0.833-0.567-1.367-0.567c-0.533 0-0.989 0.189-1.367 0.567s-0.567 0.833-0.567 1.367c0 0.533 0.189 0.989 0.567 1.367s0.833 0.567 1.367 0.567zM3.333 20.7h0.733c0.378-0.6 0.856-1.078 1.435-1.433s1.223-0.533 1.933-0.533c0.71 0 1.36 0.183 1.949 0.55s1.072 0.839 1.45 1.417h9.8v-13.367h-17.3v13.367zM24.367 24.633c0.533 0 0.989-0.189 1.367-0.567s0.567-0.833 0.567-1.367c0-0.533-0.189-0.989-0.567-1.367s-0.833-0.567-1.367-0.567c-0.533 0-0.989 0.189-1.367 0.567s-0.567 0.833-0.567 1.367c0 0.533 0.189 0.989 0.567 1.367s0.833 0.567 1.367 0.567zM22.633 17.833h6.2l-3.7-4.933h-2.5v4.933z"></path>
</symbol>
<symbol id="icon-mail" viewBox="0 0 32 32">
<path fill="#fff" style="fill: var(--color1, #fff)" d="M5.833 25.335c-0.511 0-0.944-0.178-1.3-0.533s-0.533-0.789-0.533-1.3v-15c0-0.511 0.178-0.944 0.533-1.3s0.789-0.533 1.3-0.533h20.333c0.511 0 0.945 0.178 1.3 0.533s0.533 0.789 0.533 1.3v15c0 0.511-0.178 0.944-0.533 1.3s-0.789 0.533-1.3 0.533h-20.333zM16 15.801l10.967-7.333-0.4-0.767-10.567 6.933-10.567-6.933-0.4 0.767 10.967 7.333z"></path>
</symbol>
<symbol id="icon-menu" viewBox="0 0 32 32">
<path fill="#fff" style="fill: var(--color1, #fff)" d="M4.333 23.513v-1.513h23.333v1.513h-23.333zM4.333 16.756v-1.513h23.333v1.513h-23.333zM4.333 10v-1.513h23.333v1.513h-23.333z"></path>
</symbol>
<symbol id="icon-nutrition" viewBox="0 0 32 32">
<path fill="#fff" d="M16.001 28c-2.6 0-4.806-0.905-6.617-2.717s-2.717-4.017-2.717-6.617c0-2.222 0.683-4.183 2.050-5.883s3.128-2.783 5.283-3.25c-0.578-0.111-1.133-0.272-1.667-0.483s-1.011-0.528-1.433-0.95c-0.622-0.644-1.039-1.389-1.25-2.233s-0.317-1.711-0.317-2.6v-0.6c1.911-0.044 3.556 0.583 4.933 1.883s2.056 2.894 2.033 4.783c0.311-0.956 0.75-1.844 1.317-2.667s1.206-1.589 1.917-2.3c0.2-0.2 0.433-0.3 0.7-0.3s0.5 0.1 0.7 0.3 0.3 0.433 0.3 0.7c0 0.267-0.1 0.5-0.3 0.7-0.556 0.556-1.056 1.156-1.5 1.8s-0.822 1.322-1.133 2.033c2.089 0.533 3.783 1.639 5.083 3.317s1.95 3.594 1.95 5.75c0 2.6-0.906 4.806-2.717 6.617s-4.017 2.717-6.617 2.717z"></path>
</symbol>
<symbol id="icon-nutrition2" viewBox="0 0 32 32">
<path d="M16.001 28c-2.6 0-4.806-0.906-6.617-2.717s-2.717-4.017-2.717-6.617c0-2.222 0.683-4.183 2.050-5.883s3.128-2.783 5.283-3.25c-0.578-0.111-1.133-0.272-1.667-0.483s-1.011-0.528-1.433-0.95c-0.622-0.644-1.039-1.389-1.25-2.233s-0.317-1.711-0.317-2.6v-0.6c1.911-0.044 3.556 0.583 4.933 1.883s2.056 2.894 2.033 4.783c0.311-0.956 0.75-1.844 1.317-2.667s1.206-1.589 1.917-2.3c0.2-0.2 0.433-0.3 0.7-0.3s0.5 0.1 0.7 0.3 0.3 0.433 0.3 0.7c0 0.267-0.1 0.5-0.3 0.7-0.556 0.556-1.056 1.156-1.5 1.8s-0.822 1.322-1.133 2.033c2.089 0.533 3.783 1.639 5.083 3.317s1.95 3.594 1.95 5.75c0 2.6-0.906 4.806-2.717 6.617s-4.017 2.717-6.617 2.717z"></path>
</symbol>
<symbol id="icon-package" viewBox="0 0 32 32">
<path fill="#fff" style="fill: var(--color1, #fff)" d="M12.667 13.733l3.333-1.667 3.333 1.667v-7.733h-6.667v7.733zM9.333 22.667v-2.667h6.667v2.667h-6.667zM6 28c-0.533 0-1-0.2-1.4-0.6s-0.6-0.867-0.6-1.4v-20c0-0.533 0.2-1 0.6-1.4s0.867-0.6 1.4-0.6h20c0.533 0 1 0.2 1.4 0.6s0.6 0.867 0.6 1.4v20c0 0.533-0.2 1-0.6 1.4s-0.867 0.6-1.4 0.6h-20zM6 26h20v-20h-4.667v10.967l-5.333-2.667-5.333 2.667v-10.967h-4.667v20z"></path>
</symbol>
<symbol id="icon-Polygon" viewBox="0 0 29 32">
<path fill="#c1c1c1" style="fill: var(--color2, #c1c1c1); stroke: var(--color4, #0f428f)" stroke="#0f428f" stroke-linejoin="miter" stroke-linecap="butt" stroke-miterlimit="4" stroke-width="4.9231" d="M10.769 28.258l12.923-7.461c3.692-2.132 3.692-7.461 0-9.593l-12.923-7.461c-3.692-2.132-8.308 0.533-8.308 4.796v14.922c0 4.264 4.615 6.928 8.308 4.797z"></path>
</symbol>
<symbol id="icon-request_page" viewBox="0 0 32 32">
<path fill="#fff" style="fill: var(--color1, #fff)" d="M15 24h2v-1.333h2c0.283 0 0.521-0.096 0.713-0.287s0.287-0.429 0.287-0.713v-4.333c0-0.283-0.096-0.521-0.287-0.712s-0.429-0.288-0.713-0.288h-5v-2.333h6v-2h-3v-1.333h-2v1.333h-2c-0.283 0-0.521 0.096-0.712 0.288s-0.288 0.429-0.288 0.712v4.333c0 0.283 0.096 0.521 0.288 0.713s0.429 0.287 0.712 0.287h5v2.333h-6v2h3v1.333zM7.333 29.333c-0.533 0-1-0.2-1.4-0.6s-0.6-0.867-0.6-1.4v-22.667c0-0.533 0.2-1 0.6-1.4s0.867-0.6 1.4-0.6h11.367l7.967 7.967v16.7c0 0.533-0.2 1-0.6 1.4s-0.867 0.6-1.4 0.6h-17.333zM7.333 27.333h17.333v-15.8l-6.867-6.867h-10.467v22.667z"></path>
</symbol>
<symbol id="icon-route" viewBox="0 0 32 32">
<path fill="#fff" style="fill: var(--color1, #fff)" d="M11.833 28c-1.444 0-2.667-0.506-3.667-1.518s-1.5-2.228-1.5-3.649v-11.633c-0.778-0.289-1.417-0.747-1.917-1.375s-0.75-1.344-0.75-2.147c0-1.030 0.361-1.9 1.083-2.611s1.589-1.067 2.6-1.067c1.011 0 1.872 0.357 2.583 1.071s1.067 1.581 1.067 2.602c0 0.796-0.25 1.51-0.75 2.144s-1.139 1.094-1.917 1.383v11.633c0 0.871 0.306 1.616 0.917 2.236s1.367 0.93 2.267 0.93c0.9 0 1.65-0.31 2.25-0.93s0.9-1.366 0.9-2.236v-13.667c0-1.444 0.5-2.667 1.5-3.667s2.222-1.5 3.667-1.5c1.444 0 2.667 0.5 3.667 1.5s1.5 2.222 1.5 3.667v11.633c0.778 0.289 1.417 0.748 1.917 1.379s0.75 1.349 0.75 2.155c0 1-0.356 1.861-1.069 2.583s-1.579 1.083-2.597 1.083c-1 0-1.861-0.361-2.583-1.083s-1.083-1.583-1.083-2.583c0-0.807 0.25-1.53 0.75-2.172s1.139-1.095 1.917-1.362v-11.633c0-0.889-0.306-1.639-0.917-2.25s-1.361-0.917-2.25-0.917c-0.889 0-1.639 0.306-2.25 0.917s-0.917 1.361-0.917 2.25v13.667c0 1.421-0.5 2.637-1.5 3.649s-2.222 1.518-3.667 1.518zM7.683 9.333c0.456 0 0.844-0.167 1.167-0.5s0.483-0.728 0.483-1.183c0-0.456-0.16-0.844-0.479-1.167s-0.715-0.483-1.188-0.483c-0.444 0-0.833 0.16-1.167 0.479s-0.5 0.715-0.5 1.188c0 0.444 0.167 0.833 0.5 1.167s0.728 0.5 1.183 0.5zM24.35 26c0.456 0 0.844-0.167 1.167-0.5s0.483-0.728 0.483-1.183c0-0.456-0.16-0.844-0.479-1.167s-0.715-0.483-1.188-0.483c-0.444 0-0.833 0.16-1.167 0.479s-0.5 0.715-0.5 1.187c0 0.444 0.167 0.833 0.5 1.167s0.728 0.5 1.183 0.5z"></path>
</symbol>
<symbol id="icon-science" viewBox="0 0 32 32">
<path d="M5.733 28c-0.928 0-1.588-0.433-1.98-1.3s-0.265-1.656 0.38-2.367l8.267-9.333v-9h-1.733c-0.283 0-0.521-0.096-0.713-0.289s-0.287-0.432-0.287-0.717c0-0.285 0.096-0.522 0.287-0.711s0.429-0.283 0.713-0.283h10.667c0.283 0 0.521 0.096 0.713 0.289s0.287 0.432 0.287 0.717c0 0.285-0.096 0.522-0.287 0.711s-0.429 0.283-0.713 0.283h-1.733v9l8.267 9.333c0.644 0.711 0.771 1.5 0.38 2.367s-1.051 1.3-1.98 1.3h-20.533z"></path>
</symbol>
<symbol id="icon-location" viewBox="0 0 33 32">
<path fill="#0f428f" style="fill: var(--color4, #0f428f)" d="M17.734 29.267v-2c1-0.133 1.972-0.394 2.917-0.783s1.828-0.906 2.65-1.55l1.367 1.467c-1.022 0.844-2.111 1.5-3.267 1.967s-2.378 0.767-3.667 0.9zM26.701 24.333l-1.433-1.367c0.6-0.8 1.1-1.661 1.5-2.583s0.678-1.917 0.833-2.983h2.033c-0.178 1.333-0.517 2.583-1.017 3.75s-1.139 2.228-1.917 3.183zM27.601 14.6c-0.156-1.067-0.433-2.056-0.833-2.967s-0.9-1.778-1.5-2.6l1.433-1.367c0.844 1.111 1.489 2.211 1.933 3.3s0.778 2.3 1 3.633h-2.033zM14.901 29.267c-3.378-0.378-6.2-1.828-8.467-4.35s-3.4-5.494-3.4-8.917c0-3.422 1.133-6.394 3.4-8.917s5.089-3.972 8.467-4.35v2c-2.822 0.378-5.172 1.639-7.050 3.783s-2.817 4.639-2.817 7.483c0 2.844 0.939 5.339 2.817 7.483s4.228 3.406 7.050 3.783v2zM23.334 7.067c-0.867-0.6-1.772-1.094-2.717-1.483s-1.883-0.672-2.817-0.85v-2c1.2 0.178 2.389 0.5 3.567 0.967s2.278 1.1 3.3 1.9l-1.333 1.467zM16.334 23.033c-1.889-1.6-3.289-3.083-4.2-4.45s-1.367-2.628-1.367-3.783c0-1.756 0.561-3.15 1.683-4.183s2.417-1.55 3.883-1.55 2.761 0.517 3.883 1.55c1.122 1.033 1.683 2.428 1.683 4.183 0 1.156-0.456 2.417-1.367 3.783s-2.311 2.85-4.2 4.45zM16.334 16.067c0.422 0 0.778-0.144 1.067-0.433s0.433-0.644 0.433-1.067c0-0.378-0.144-0.722-0.433-1.033s-0.644-0.467-1.067-0.467c-0.422 0-0.778 0.156-1.067 0.467s-0.433 0.656-0.433 1.033c0 0.422 0.144 0.778 0.433 1.067s0.644 0.433 1.067 0.433z"></path>
</symbol>
<symbol id="icon-Star" viewBox="0 0 35 32">
<path stroke-linejoin="miter" stroke-linecap="butt" stroke-miterlimit="4" stroke-width="5.1613" d="M29.082 22.664l0.003-0.004 0.002-0.004 2.347-4.084c0.915-1.592 0.915-3.551 0-5.144l-2.352-4.093-2.363-4.075c-0.921-1.589-2.618-2.568-4.455-2.572l-4.72-0.009-4.71 0.009c-1.837 0.004-3.533 0.983-4.455 2.572l-2.368 4.083-2.347 4.084c-0.915 1.592-0.915 3.551 0 5.144l2.352 4.093 2.363 4.075c0.921 1.589 2.618 2.568 4.455 2.572l4.72 0.009 4.71-0.009c1.837-0.004 3.533-0.983 4.455-2.572l2.363-4.075z"></path>
</symbol>
<symbol id="icon-saved" viewBox="0 0 33 32">
<path fill="#c1c1c1" style="fill: var(--color2, #c1c1c1)" d="M14.893 18.267l7.067-7.067-1.4-1.433-5.667 5.667-2.833-2.833-1.4 1.433 4.233 4.233zM1.659 28v-2h29.333v2h-29.333zM4.993 24c-0.533 0-1-0.2-1.4-0.6s-0.6-0.867-0.6-1.4v-16c0-0.533 0.2-1 0.6-1.4s0.867-0.6 1.4-0.6h22.667c0.533 0 1 0.2 1.4 0.6s0.6 0.867 0.6 1.4v16c0 0.533-0.2 1-0.6 1.4s-0.867 0.6-1.4 0.6h-22.667z"></path>
</symbol>
<symbol id="icon-task" viewBox="0 0 32 32">
<path fill="#fff" style="fill: var(--color1, #fff)" d="M14.467 23.5l7.633-7.633-1.3-1.3-6.333 6.333-3.433-3.433-1.3 1.3 4.733 4.733zM7.333 29.333c-0.533 0-1-0.2-1.4-0.6s-0.6-0.867-0.6-1.4v-22.667c0-0.533 0.2-1 0.6-1.4s0.867-0.6 1.4-0.6h12.033l7.3 7.3v17.367c0 0.533-0.2 1-0.6 1.4s-0.867 0.6-1.4 0.6h-17.333zM18.367 10.867v-6.2h-11.033v22.667h17.333v-16.467h-6.3z"></path>
</symbol>
<symbol id="icon-tire_repair" viewBox="0 0 31 32">
<path fill="#c1c1c1" style="fill: var(--color2, #c1c1c1)" d="M25.143 10.449c-0.37 0-0.68-0.125-0.931-0.376s-0.375-0.561-0.375-0.931c0-0.174 0.038-0.343 0.114-0.506s0.169-0.299 0.278-0.408c0.261-0.261 0.86-0.555 1.796-0.882l1.404-0.49c-0.174 0.501-0.337 0.969-0.49 1.404-0.131 0.37-0.278 0.729-0.441 1.078s-0.31 0.588-0.441 0.718c-0.109 0.109-0.245 0.201-0.408 0.278s-0.332 0.114-0.506 0.114zM4.571 27.755c-0.539 0-1-0.192-1.384-0.575s-0.575-0.845-0.575-1.384v-19.592c0-0.539 0.192-1 0.575-1.384s0.845-0.575 1.384-0.575h8.816c0.539 0 1 0.192 1.384 0.575s0.575 0.845 0.575 1.384v11.788c0.305-0.109 0.599-0.196 0.882-0.261s0.534-0.098 0.753-0.098c0.997 0 1.845 0.349 2.543 1.048s1.047 1.546 1.047 2.544v2.776c0 0.435 0.191 0.844 0.571 1.224s0.795 0.571 1.241 0.571c0.446 0 0.854-0.191 1.224-0.571s0.555-0.789 0.555-1.224v-7.347h-1.306v-1.763c-1.175-0.501-2.122-1.26-2.841-2.279s-1.078-2.172-1.078-3.46c0-1.725 0.61-3.192 1.829-4.4s2.683-1.812 4.392-1.812c1.709 0 3.167 0.605 4.375 1.815s1.812 2.674 1.812 4.391c0 1.283-0.359 2.436-1.078 3.459s-1.665 1.785-2.841 2.286v1.763h-1.306v7.347c0 0.98-0.375 1.85-1.127 2.612s-1.622 1.143-2.612 1.143c-0.991 0-1.867-0.381-2.629-1.143s-1.143-1.633-1.143-2.612v-2.776c0-0.463-0.156-0.85-0.469-1.163s-0.701-0.469-1.163-0.469c-0.435 0-0.816 0.156-1.143 0.469s-0.49 0.701-0.49 1.163v4.571c0 0.539-0.192 1-0.575 1.384s-0.845 0.575-1.384 0.575h-8.816zM25.139 13.388c1.178 0 2.181-0.412 3.008-1.237s1.241-1.826 1.241-3.004-0.412-2.181-1.237-3.008c-0.825-0.827-1.826-1.241-3.004-1.241s-2.181 0.412-3.008 1.237c-0.827 0.825-1.241 1.826-1.241 3.004s0.412 2.181 1.237 3.008c0.825 0.827 1.826 1.241 3.004 1.241zM7.184 10.971v-2.776l-1.992-1.992h-0.62v2.155l2.612 2.612zM10.775 10.971l2.612-2.612v-2.155h-0.62l-1.992 1.992v2.775zM7.184 17.829v-2.776l-2.612-2.612v2.776l2.612 2.612zM10.775 17.829l2.612-2.612v-2.776l-2.612 2.612v2.776zM7.184 24.359v-2.776l-2.612-2.612v2.776l2.612 2.612zM10.775 24.359l2.612-2.612v-2.776l-2.612 2.612v2.776z"></path>
</symbol>
<symbol id="icon-water_drop" viewBox="0 0 32 32">
<path fill="#fff" style="fill: var(--color1, #fff)" d="M16.031 24.938c0.296-0.009 0.521-0.063 0.676-0.164s0.232-0.252 0.232-0.454-0.079-0.354-0.238-0.458c-0.159-0.103-0.389-0.155-0.69-0.155-0.925 0.017-1.905-0.282-2.94-0.896s-1.686-1.666-1.953-3.155c-0.036-0.2-0.117-0.353-0.242-0.458s-0.265-0.158-0.417-0.158c-0.193 0-0.346 0.075-0.458 0.226s-0.15 0.326-0.114 0.526c0.333 1.833 1.135 3.151 2.405 3.954s2.516 1.201 3.738 1.192zM16 28.667c-2.856 0-5.237-0.98-7.142-2.941s-2.858-4.403-2.858-7.326c0-2.068 0.828-4.335 2.483-6.801s4.161-5.153 7.517-8.060c3.355 2.908 5.861 5.594 7.517 8.060s2.483 4.733 2.483 6.801c0 2.923-0.953 5.365-2.858 7.326s-4.286 2.941-7.142 2.941z"></path>
</symbol>
<symbol id="icon-water_drop2" viewBox="0 0 32 32">
<path d="M16.031 24.938c0.296-0.009 0.521-0.063 0.676-0.164s0.232-0.252 0.232-0.454c0-0.202-0.079-0.354-0.238-0.458s-0.389-0.155-0.69-0.155c-0.925 0.017-1.905-0.282-2.94-0.896s-1.686-1.666-1.953-3.155c-0.036-0.2-0.117-0.353-0.242-0.458s-0.265-0.158-0.417-0.158c-0.193 0-0.346 0.075-0.458 0.226s-0.15 0.326-0.114 0.526c0.333 1.833 1.135 3.15 2.405 3.954s2.516 1.201 3.738 1.192zM16 28.666c-2.856 0-5.237-0.98-7.142-2.941s-2.858-4.403-2.858-7.326c0-2.068 0.828-4.335 2.483-6.801s4.161-5.153 7.517-8.060c3.356 2.908 5.861 5.594 7.517 8.060s2.483 4.733 2.483 6.801c0 2.923-0.953 5.365-2.858 7.326s-4.286 2.941-7.142 2.941z"></path>
</symbol>
<symbol id="icon-water" viewBox="0 0 32 32">
<path d="M2.668 23.634v-2c0.844 0 1.528-0.256 2.050-0.767s1.283-0.767 2.283-0.767 1.778 0.3 2.333 0.9c0.556 0.6 1.267 0.9 2.133 0.9s1.589-0.3 2.167-0.9c0.578-0.6 1.367-0.9 2.367-0.9s1.783 0.3 2.35 0.9c0.567 0.6 1.283 0.9 2.15 0.9s1.583-0.3 2.15-0.9c0.567-0.6 1.35-0.9 2.35-0.9s1.761 0.256 2.283 0.767c0.522 0.511 1.206 0.767 2.050 0.767v2c-1.044 0-1.817-0.256-2.317-0.767s-1.172-0.767-2.017-0.767c-0.845 0-1.556 0.3-2.133 0.9s-1.367 0.9-2.367 0.9c-1 0-1.789-0.3-2.367-0.9s-1.289-0.9-2.133-0.9c-0.844 0-1.561 0.3-2.15 0.9s-1.383 0.9-2.383 0.9c-1 0-1.783-0.3-2.35-0.9s-1.272-0.9-2.117-0.9c-0.844 0-1.517 0.256-2.017 0.767s-1.272 0.767-2.317 0.767zM2.668 18.3v-2c0.844 0 1.528-0.256 2.050-0.767s1.283-0.767 2.283-0.767c1 0 1.778 0.3 2.333 0.9s1.267 0.9 2.133 0.9c0.867 0 1.589-0.3 2.167-0.9s1.367-0.9 2.367-0.9c1 0 1.783 0.3 2.35 0.9s1.283 0.9 2.15 0.9c0.867 0 1.583-0.3 2.15-0.9s1.35-0.9 2.35-0.9 1.761 0.256 2.283 0.767c0.522 0.511 1.206 0.767 2.050 0.767v2c-1.044 0-1.817-0.256-2.317-0.767s-1.172-0.767-2.017-0.767c-0.845 0-1.556 0.3-2.133 0.9s-1.367 0.9-2.367 0.9c-1 0-1.789-0.3-2.367-0.9s-1.289-0.9-2.133-0.9c-0.844 0-1.561 0.3-2.15 0.9s-1.383 0.9-2.383 0.9c-1 0-1.783-0.3-2.35-0.9s-1.272-0.9-2.117-0.9c-0.844 0-1.517 0.256-2.017 0.767s-1.272 0.767-2.317 0.767zM2.668 12.967v-2c0.844 0 1.528-0.256 2.050-0.767s1.283-0.767 2.283-0.767c1 0 1.778 0.3 2.333 0.9s1.267 0.9 2.133 0.9c0.867 0 1.589-0.3 2.167-0.9s1.367-0.9 2.367-0.9c1 0 1.783 0.3 2.35 0.9s1.283 0.9 2.15 0.9c0.867 0 1.583-0.3 2.15-0.9s1.35-0.9 2.35-0.9 1.761 0.256 2.283 0.767c0.522 0.511 1.206 0.767 2.050 0.767v2c-1.044 0-1.817-0.256-2.317-0.767s-1.172-0.767-2.017-0.767c-0.845 0-1.556 0.3-2.133 0.9s-1.367 0.9-2.367 0.9c-1 0-1.789-0.3-2.367-0.9s-1.289-0.9-2.133-0.9c-0.844 0-1.561 0.3-2.15 0.9s-1.383 0.9-2.383 0.9c-1 0-1.783-0.3-2.35-0.9s-1.272-0.9-2.117-0.9c-0.844 0-1.517 0.256-2.017 0.767s-1.272 0.767-2.317 0.767z"></path>
</symbol>
<symbol id="icon-water_voc" viewBox="0 0 32 32">
<path d="M19.899 29.534l-0.433-0.967c-0.178-0.378-0.3-0.756-0.367-1.133s-0.1-0.767-0.1-1.167c0-0.489 0.061-0.967 0.183-1.433s0.294-0.922 0.517-1.367c0.178-0.378 0.328-0.767 0.45-1.167s0.183-0.811 0.183-1.233c0-0.356-0.039-0.706-0.117-1.050s-0.194-0.672-0.35-0.983l-0.3-0.7 1.2-0.533 0.4 0.933c0.178 0.378 0.306 0.761 0.383 1.15s0.117 0.783 0.117 1.183c0 0.467-0.056 0.922-0.167 1.367s-0.267 0.878-0.467 1.3c-0.178 0.4-0.339 0.811-0.483 1.233s-0.217 0.856-0.217 1.3c0 0.333 0.039 0.661 0.117 0.983s0.183 0.639 0.317 0.95l0.367 0.8-1.233 0.533zM23.899 29.534l-0.433-0.967c-0.178-0.378-0.3-0.756-0.367-1.133s-0.1-0.767-0.1-1.167c0-0.489 0.061-0.967 0.183-1.433s0.294-0.922 0.517-1.367c0.178-0.378 0.328-0.767 0.45-1.167s0.183-0.811 0.183-1.233c0-0.356-0.039-0.706-0.117-1.050s-0.194-0.672-0.35-0.983l-0.3-0.7 1.2-0.533 0.4 0.9c0.156 0.378 0.278 0.767 0.367 1.167s0.133 0.8 0.133 1.2c0 0.467-0.056 0.922-0.167 1.367s-0.267 0.878-0.467 1.3c-0.178 0.4-0.339 0.811-0.483 1.233s-0.217 0.856-0.217 1.3c0 0.333 0.039 0.661 0.117 0.983s0.183 0.639 0.317 0.95l0.367 0.8-1.233 0.533zM27.899 29.534l-0.433-0.967c-0.178-0.378-0.3-0.756-0.367-1.133s-0.1-0.767-0.1-1.167c0-0.489 0.061-0.967 0.183-1.433s0.294-0.922 0.517-1.367c0.178-0.378 0.328-0.767 0.45-1.167s0.183-0.811 0.183-1.233c0-0.356-0.039-0.706-0.117-1.050s-0.194-0.672-0.35-0.983l-0.3-0.7 1.2-0.533 0.433 0.9c0.178 0.378 0.3 0.767 0.367 1.167s0.1 0.8 0.1 1.2c0 0.467-0.056 0.922-0.167 1.367s-0.267 0.878-0.467 1.3c-0.178 0.4-0.339 0.811-0.483 1.233s-0.217 0.856-0.217 1.3c0 0.333 0.039 0.661 0.117 0.983s0.183 0.639 0.317 0.95l0.367 0.8-1.233 0.533zM5.332 18.4c0-2.222 0.883-4.639 2.65-7.25s4.439-5.439 8.017-8.483c2.911 2.467 5.217 4.789 6.917 6.967s2.828 4.233 3.383 6.167h-7.3c-0.556 0-1.028 0.194-1.417 0.583s-0.583 0.861-0.583 1.417v11.5c-0.178 0.022-0.344 0.033-0.5 0.033h-0.5c-3.044 0-5.583-1.044-7.617-3.133s-3.050-4.689-3.050-7.8z"></path>
</symbol>
<symbol id="icon-weight" viewBox="0 0 32 32">
<path d="M7.234 26h17.533l-2.1-14.667h-13.333l-2.1 14.667zM16 9.333c0.567 0 1.042-0.192 1.425-0.575s0.575-0.858 0.575-1.425c0-0.567-0.192-1.042-0.575-1.425s-0.858-0.575-1.425-0.575c-0.567 0-1.042 0.192-1.425 0.575s-0.575 0.858-0.575 1.425c0 0.567 0.192 1.042 0.575 1.425s0.858 0.575 1.425 0.575zM19.467 9.333h3.2c0.514 0 0.959 0.161 1.335 0.483s0.598 0.739 0.665 1.25l2.067 14.667c0.089 0.6-0.062 1.128-0.454 1.583s-0.896 0.683-1.513 0.683h-17.533c-0.617 0-1.121-0.228-1.513-0.683s-0.543-0.983-0.454-1.583l2.067-14.667c0.067-0.511 0.288-0.928 0.665-1.25s0.822-0.483 1.335-0.483h3.2c-0.178-0.311-0.311-0.629-0.4-0.952s-0.133-0.673-0.133-1.048c0-1.111 0.389-2.056 1.167-2.833s1.722-1.167 2.833-1.167c1.111 0 2.056 0.389 2.833 1.167s1.167 1.722 1.167 2.833c0 0.378-0.044 0.728-0.133 1.050s-0.222 0.639-0.4 0.95z"></path>
</symbol>
<symbol id="icon-mode_of_travel" viewBox="0 0 32 32">
<path fill="#fff" style="fill: var(--color1, #fff)" d="M16 29.333c-3.444-2.978-6.083-5.756-7.917-8.333s-2.75-5.044-2.75-7.4c0-3.311 1.078-5.961 3.233-7.95s4.633-2.983 7.433-2.983c2.978 0 5.511 1.044 7.6 3.133s3.133 4.956 3.133 8.6l3.133-3.133 1.4 1.4-5.533 5.533-5.533-5.533 1.4-1.4 3.133 3.133c0-2.933-0.811-5.289-2.433-7.067s-3.722-2.667-6.3-2.667c-2.422 0-4.472 0.839-6.15 2.517s-2.517 3.817-2.517 6.417c0 1.822 0.733 3.811 2.2 5.967s3.622 4.533 6.467 7.133c0.444-0.4 0.922-0.856 1.433-1.367l1.333-1.333c-0.133-0.267-0.239-0.533-0.317-0.8s-0.117-0.522-0.117-0.767c0-0.844 0.294-1.556 0.883-2.133s1.294-0.867 2.117-0.867c0.844 0 1.556 0.289 2.133 0.867s0.867 1.289 0.867 2.133c0 0.844-0.289 1.556-0.867 2.133s-1.289 0.867-2.133 0.867c-0.156 0-0.317-0.011-0.483-0.033s-0.35-0.067-0.55-0.133c-0.689 0.711-1.367 1.389-2.033 2.033s-1.422 1.322-2.267 2.033z"></path>
</symbol>
<symbol id="icon-shower" viewBox="0 0 32 32">
<path fill="#fff" style="fill: var(--color1, #fff)" d="M9.933 23.233c-0.267 0-0.5-0.1-0.7-0.3s-0.3-0.433-0.3-0.7c0-0.267 0.1-0.5 0.3-0.7s0.433-0.3 0.7-0.3c0.267 0 0.5 0.1 0.7 0.3s0.3 0.433 0.3 0.7c0 0.267-0.1 0.5-0.3 0.7s-0.433 0.3-0.7 0.3zM16 23.233c-0.267 0-0.5-0.1-0.7-0.3s-0.3-0.433-0.3-0.7c0-0.267 0.1-0.5 0.3-0.7s0.433-0.3 0.7-0.3c0.267 0 0.5 0.1 0.7 0.3s0.3 0.433 0.3 0.7c0 0.267-0.1 0.5-0.3 0.7s-0.433 0.3-0.7 0.3zM22.067 23.233c-0.267 0-0.5-0.1-0.7-0.3s-0.3-0.433-0.3-0.7c0-0.267 0.1-0.5 0.3-0.7s0.433-0.3 0.7-0.3c0.267 0 0.5 0.1 0.7 0.3s0.3 0.433 0.3 0.7c0 0.267-0.1 0.5-0.3 0.7s-0.433 0.3-0.7 0.3zM6.667 18.233v-2c0-2.378 0.806-4.456 2.417-6.233s3.583-2.789 5.917-3.033v-2.967h2v2.967c2.333 0.244 4.306 1.256 5.917 3.033s2.417 3.856 2.417 6.233v2h-18.667zM8.667 16.233h14.667c0-2.022-0.714-3.75-2.143-5.183s-3.156-2.15-5.183-2.15c-2.027 0-3.757 0.715-5.19 2.145s-2.15 3.159-2.15 5.188zM9.933 28c-0.267 0-0.5-0.1-0.7-0.3s-0.3-0.433-0.3-0.7c0-0.267 0.1-0.5 0.3-0.7s0.433-0.3 0.7-0.3c0.267 0 0.5 0.1 0.7 0.3s0.3 0.433 0.3 0.7c0 0.267-0.1 0.5-0.3 0.7s-0.433 0.3-0.7 0.3zM16 28c-0.267 0-0.5-0.1-0.7-0.3s-0.3-0.433-0.3-0.7c0-0.267 0.1-0.5 0.3-0.7s0.433-0.3 0.7-0.3c0.267 0 0.5 0.1 0.7 0.3s0.3 0.433 0.3 0.7c0 0.267-0.1 0.5-0.3 0.7s-0.433 0.3-0.7 0.3zM22.067 28c-0.267 0-0.5-0.1-0.7-0.3s-0.3-0.433-0.3-0.7c0-0.267 0.1-0.5 0.3-0.7s0.433-0.3 0.7-0.3c0.267 0 0.5 0.1 0.7 0.3s0.3 0.433 0.3 0.7c0 0.267-0.1 0.5-0.3 0.7s-0.433 0.3-0.7 0.3z"></path>
</symbol>
</defs>
</svg>
